<svg width="594" height="418" viewBox="0 0 594 418" fill="none" xmlns="http://www.w3.org/2000/svg">
<rect width="594" height="418" rx="20" fill="#0165FC"/>
<path d="M47.552 322.216C45.84 322.216 44.376 321.864 43.16 321.16C41.944 320.456 41.008 319.456 40.352 318.16C39.712 316.848 39.392 315.304 39.392 313.528C39.392 311.752 39.712 310.216 40.352 308.92C41.008 307.624 41.944 306.624 43.16 305.92C44.376 305.216 45.84 304.864 47.552 304.864C48.704 304.864 49.776 305.048 50.768 305.416C51.776 305.768 52.616 306.28 53.288 306.952L52.424 308.944C51.688 308.288 50.928 307.816 50.144 307.528C49.376 307.224 48.536 307.072 47.624 307.072C45.8 307.072 44.408 307.632 43.448 308.752C42.488 309.872 42.008 311.464 42.008 313.528C42.008 315.592 42.488 317.192 43.448 318.328C44.408 319.448 45.8 320.008 47.624 320.008C48.536 320.008 49.376 319.864 50.144 319.576C50.928 319.272 51.688 318.792 52.424 318.136L53.288 320.128C52.616 320.784 51.776 321.296 50.768 321.664C49.776 322.032 48.704 322.216 47.552 322.216ZM59.2683 322.216C58.4523 322.216 57.7243 322.056 57.0843 321.736C56.4443 321.416 55.9323 320.984 55.5483 320.44C55.1803 319.896 54.9963 319.28 54.9963 318.592C54.9963 317.728 55.2123 317.048 55.6443 316.552C56.0923 316.056 56.8203 315.696 57.8283 315.472C58.8523 315.248 60.2283 315.136 61.9563 315.136H62.7723V314.512C62.7723 313.6 62.5803 312.944 62.1963 312.544C61.8123 312.144 61.1803 311.944 60.3003 311.944C59.6283 311.944 58.9563 312.048 58.2843 312.256C57.6123 312.448 56.9243 312.76 56.2203 313.192L55.4763 311.488C56.0843 311.056 56.8443 310.712 57.7563 310.456C58.6683 310.2 59.5403 310.072 60.3723 310.072C61.9723 310.072 63.1563 310.456 63.9243 311.224C64.6923 311.976 65.0763 313.16 65.0763 314.776V322H62.7963V320.056C62.5083 320.728 62.0603 321.256 61.4523 321.64C60.8443 322.024 60.1163 322.216 59.2683 322.216ZM59.7483 320.488C60.6123 320.488 61.3323 320.184 61.9083 319.576C62.4843 318.968 62.7723 318.2 62.7723 317.272V316.624H61.9803C60.8123 316.624 59.8923 316.68 59.2203 316.792C58.5643 316.904 58.0923 317.096 57.8043 317.368C57.5323 317.624 57.3963 317.984 57.3963 318.448C57.3963 319.056 57.6043 319.552 58.0203 319.936C58.4363 320.304 59.0123 320.488 59.7483 320.488ZM68.4149 322V310.288H70.7669V312.376C71.3749 310.984 72.6389 310.208 74.5589 310.048L75.3509 310L75.5189 312.064L74.0549 312.208C71.9269 312.416 70.8629 313.512 70.8629 315.496V322H68.4149ZM81.668 322.216C80.644 322.216 79.74 321.976 78.956 321.496C78.188 321 77.588 320.296 77.156 319.384C76.724 318.472 76.508 317.392 76.508 316.144C76.508 314.896 76.724 313.824 77.156 312.928C77.588 312.016 78.188 311.312 78.956 310.816C79.724 310.32 80.628 310.072 81.668 310.072C82.548 310.072 83.332 310.264 84.02 310.648C84.708 311.032 85.22 311.552 85.556 312.208V305.08H87.98V322H85.604V319.96C85.268 320.664 84.748 321.216 84.044 321.616C83.356 322.016 82.564 322.216 81.668 322.216ZM82.292 320.344C83.284 320.344 84.084 319.984 84.692 319.264C85.3 318.544 85.604 317.504 85.604 316.144C85.604 314.784 85.3 313.752 84.692 313.048C84.084 312.328 83.284 311.968 82.292 311.968C81.284 311.968 80.476 312.328 79.868 313.048C79.26 313.752 78.956 314.784 78.956 316.144C78.956 317.504 79.26 318.544 79.868 319.264C80.476 319.984 81.284 320.344 82.292 320.344ZM97.9524 322V305.08H100.448V312.376H109.928V305.08H112.4V322H109.928V314.464H100.448V322H97.9524ZM121.175 322.216C119.991 322.216 118.967 321.968 118.103 321.472C117.239 320.976 116.567 320.28 116.087 319.384C115.623 318.472 115.391 317.392 115.391 316.144C115.391 314.896 115.623 313.824 116.087 312.928C116.567 312.016 117.239 311.312 118.103 310.816C118.967 310.32 119.991 310.072 121.175 310.072C122.327 310.072 123.335 310.32 124.199 310.816C125.063 311.312 125.735 312.016 126.215 312.928C126.695 313.824 126.935 314.896 126.935 316.144C126.935 317.392 126.695 318.472 126.215 319.384C125.735 320.28 125.063 320.976 124.199 321.472C123.335 321.968 122.327 322.216 121.175 322.216ZM121.175 320.344C122.167 320.344 122.967 319.984 123.575 319.264C124.183 318.544 124.487 317.504 124.487 316.144C124.487 314.784 124.183 313.752 123.575 313.048C122.967 312.328 122.167 311.968 121.175 311.968C120.167 311.968 119.359 312.328 118.751 313.048C118.143 313.752 117.839 314.784 117.839 316.144C117.839 317.504 118.143 318.544 118.751 319.264C119.359 319.984 120.167 320.344 121.175 320.344ZM133.473 322.216C132.193 322.216 131.233 321.856 130.593 321.136C129.969 320.416 129.657 319.36 129.657 317.968V305.08H132.081V317.824C132.081 319.408 132.729 320.2 134.025 320.2C134.217 320.2 134.393 320.192 134.553 320.176C134.729 320.16 134.905 320.128 135.081 320.08L135.033 322.024C134.489 322.152 133.969 322.216 133.473 322.216ZM141.34 322.216C140.316 322.216 139.412 321.976 138.628 321.496C137.86 321 137.26 320.296 136.828 319.384C136.396 318.472 136.18 317.392 136.18 316.144C136.18 314.896 136.396 313.824 136.828 312.928C137.26 312.016 137.86 311.312 138.628 310.816C139.396 310.32 140.3 310.072 141.34 310.072C142.22 310.072 143.004 310.264 143.692 310.648C144.38 311.032 144.892 311.552 145.228 312.208V305.08H147.652V322H145.276V319.96C144.94 320.664 144.42 321.216 143.716 321.616C143.028 322.016 142.236 322.216 141.34 322.216ZM141.964 320.344C142.956 320.344 143.756 319.984 144.364 319.264C144.972 318.544 145.276 317.504 145.276 316.144C145.276 314.784 144.972 313.752 144.364 313.048C143.756 312.328 142.956 311.968 141.964 311.968C140.956 311.968 140.148 312.328 139.54 313.048C138.932 313.752 138.628 314.784 138.628 316.144C138.628 317.504 138.932 318.544 139.54 319.264C140.148 319.984 140.956 320.344 141.964 320.344ZM156.552 322.216C154.632 322.216 153.12 321.68 152.016 320.608C150.912 319.52 150.36 318.04 150.36 316.168C150.36 314.968 150.6 313.912 151.08 313C151.576 312.072 152.256 311.352 153.12 310.84C153.984 310.328 154.976 310.072 156.096 310.072C157.712 310.072 158.984 310.592 159.912 311.632C160.84 312.656 161.304 314.072 161.304 315.88V316.696H152.712C152.888 319.128 154.176 320.344 156.576 320.344C157.248 320.344 157.904 320.24 158.544 320.032C159.2 319.824 159.816 319.48 160.392 319L161.112 320.68C160.584 321.16 159.904 321.536 159.072 321.808C158.24 322.08 157.4 322.216 156.552 322.216ZM156.192 311.776C155.184 311.776 154.384 312.088 153.792 312.712C153.2 313.336 152.84 314.168 152.712 315.208H159.264C159.216 314.12 158.928 313.28 158.4 312.688C157.872 312.08 157.136 311.776 156.192 311.776ZM163.946 322V310.288H166.298V312.376C166.906 310.984 168.17 310.208 170.09 310.048L170.882 310L171.05 312.064L169.586 312.208C167.458 312.416 166.394 313.512 166.394 315.496V322H163.946ZM179.468 322V305.08H181.364L191.06 317.872V305.08H193.364V322H191.516L181.772 309.16V322H179.468ZM200.784 322.216C199.968 322.216 199.24 322.056 198.6 321.736C197.96 321.416 197.448 320.984 197.064 320.44C196.696 319.896 196.512 319.28 196.512 318.592C196.512 317.728 196.728 317.048 197.16 316.552C197.608 316.056 198.336 315.696 199.344 315.472C200.368 315.248 201.744 315.136 203.472 315.136H204.288V314.512C204.288 313.6 204.096 312.944 203.712 312.544C203.328 312.144 202.696 311.944 201.816 311.944C201.144 311.944 200.472 312.048 199.8 312.256C199.128 312.448 198.44 312.76 197.736 313.192L196.992 311.488C197.6 311.056 198.36 310.712 199.272 310.456C200.184 310.2 201.056 310.072 201.888 310.072C203.488 310.072 204.672 310.456 205.44 311.224C206.208 311.976 206.592 313.16 206.592 314.776V322H204.312V320.056C204.024 320.728 203.576 321.256 202.968 321.64C202.36 322.024 201.632 322.216 200.784 322.216ZM201.264 320.488C202.128 320.488 202.848 320.184 203.424 319.576C204 318.968 204.288 318.2 204.288 317.272V316.624H203.496C202.328 316.624 201.408 316.68 200.736 316.792C200.08 316.904 199.608 317.096 199.32 317.368C199.048 317.624 198.912 317.984 198.912 318.448C198.912 319.056 199.12 319.552 199.536 319.936C199.952 320.304 200.528 320.488 201.264 320.488ZM209.979 322V310.288H212.331V312.184C212.683 311.512 213.171 310.992 213.795 310.624C214.419 310.256 215.147 310.072 215.979 310.072C217.771 310.072 218.931 310.856 219.459 312.424C219.827 311.688 220.355 311.112 221.043 310.696C221.731 310.28 222.515 310.072 223.395 310.072C226.019 310.072 227.331 311.64 227.331 314.776V322H224.907V314.896C224.907 313.904 224.731 313.176 224.379 312.712C224.043 312.248 223.483 312.016 222.699 312.016C221.819 312.016 221.123 312.328 220.611 312.952C220.099 313.56 219.843 314.392 219.843 315.448V322H217.419V314.896C217.419 313.904 217.251 313.176 216.915 312.712C216.579 312.248 216.019 312.016 215.235 312.016C214.355 312.016 213.659 312.328 213.147 312.952C212.651 313.56 212.403 314.392 212.403 315.448V322H209.979ZM236.216 322.216C234.296 322.216 232.784 321.68 231.68 320.608C230.576 319.52 230.024 318.04 230.024 316.168C230.024 314.968 230.264 313.912 230.744 313C231.24 312.072 231.92 311.352 232.784 310.84C233.648 310.328 234.64 310.072 235.76 310.072C237.376 310.072 238.648 310.592 239.576 311.632C240.504 312.656 240.968 314.072 240.968 315.88V316.696H232.376C232.552 319.128 233.84 320.344 236.24 320.344C236.912 320.344 237.568 320.24 238.208 320.032C238.864 319.824 239.48 319.48 240.056 319L240.776 320.68C240.248 321.16 239.568 321.536 238.736 321.808C237.904 322.08 237.064 322.216 236.216 322.216ZM235.856 311.776C234.848 311.776 234.048 312.088 233.456 312.712C232.864 313.336 232.504 314.168 232.376 315.208H238.928C238.88 314.12 238.592 313.28 238.064 312.688C237.536 312.08 236.8 311.776 235.856 311.776Z" fill="white"/>
<path d="M39.968 358V341.08H50.912V343.096H42.368V348.4H50.408V350.416H42.368V355.984H50.912V358H39.968ZM52.2768 358L57.1488 351.952L52.5888 346.288H55.4208L58.5648 350.296L61.7088 346.288H64.5408L59.9568 351.976L64.8528 358H61.9728L58.5408 353.68L55.1328 358H52.2768ZM66.6571 362.32V346.288H69.0331V348.28C69.3691 347.608 69.8811 347.072 70.5691 346.672C71.2571 346.272 72.0491 346.072 72.9451 346.072C73.9851 346.072 74.8891 346.32 75.6571 346.816C76.4411 347.312 77.0411 348.016 77.4571 348.928C77.8891 349.824 78.1051 350.896 78.1051 352.144C78.1051 353.392 77.8891 354.472 77.4571 355.384C77.0411 356.296 76.4411 357 75.6571 357.496C74.8891 357.976 73.9851 358.216 72.9451 358.216C72.0811 358.216 71.3051 358.032 70.6171 357.664C69.9451 357.28 69.4331 356.76 69.0811 356.104V362.32H66.6571ZM72.3451 356.344C73.3531 356.344 74.1531 355.984 74.7451 355.264C75.3531 354.544 75.6571 353.504 75.6571 352.144C75.6571 350.784 75.3531 349.752 74.7451 349.048C74.1531 348.328 73.3531 347.968 72.3451 347.968C71.3371 347.968 70.5291 348.328 69.9211 349.048C69.3291 349.752 69.0331 350.784 69.0331 352.144C69.0331 353.504 69.3291 354.544 69.9211 355.264C70.5291 355.984 71.3371 356.344 72.3451 356.344ZM80.6208 343.576V341.056H83.4528V343.576H80.6208ZM80.8368 358V346.288H83.2608V358H80.8368ZM86.6728 358V346.288H89.0248V348.376C89.6328 346.984 90.8968 346.208 92.8168 346.048L93.6088 346L93.7768 348.064L92.3128 348.208C90.1848 348.416 89.1208 349.512 89.1208 351.496V358H86.6728ZM97.5524 362.32L99.6404 357.688L94.7444 346.288H97.3364L100.936 355.192L104.584 346.288H107.08L100.096 362.32H97.5524ZM115.39 358V341.08H121.366C124.15 341.08 126.294 341.808 127.798 343.264C129.318 344.72 130.078 346.808 130.078 349.528C130.078 352.248 129.318 354.344 127.798 355.816C126.294 357.272 124.15 358 121.366 358H115.39ZM117.886 355.912H121.222C125.398 355.912 127.486 353.784 127.486 349.528C127.486 345.288 125.398 343.168 121.222 343.168H117.886V355.912ZM136.893 358.216C136.077 358.216 135.349 358.056 134.709 357.736C134.069 357.416 133.557 356.984 133.173 356.44C132.805 355.896 132.621 355.28 132.621 354.592C132.621 353.728 132.837 353.048 133.269 352.552C133.717 352.056 134.445 351.696 135.453 351.472C136.477 351.248 137.853 351.136 139.581 351.136H140.397V350.512C140.397 349.6 140.205 348.944 139.821 348.544C139.437 348.144 138.805 347.944 137.925 347.944C137.253 347.944 136.581 348.048 135.909 348.256C135.237 348.448 134.549 348.76 133.845 349.192L133.101 347.488C133.709 347.056 134.469 346.712 135.381 346.456C136.293 346.2 137.165 346.072 137.997 346.072C139.597 346.072 140.781 346.456 141.549 347.224C142.317 347.976 142.701 349.16 142.701 350.776V358H140.421V356.056C140.133 356.728 139.685 357.256 139.077 357.64C138.469 358.024 137.741 358.216 136.893 358.216ZM137.373 356.488C138.237 356.488 138.957 356.184 139.533 355.576C140.109 354.968 140.397 354.2 140.397 353.272V352.624H139.605C138.437 352.624 137.517 352.68 136.845 352.792C136.189 352.904 135.717 353.096 135.429 353.368C135.157 353.624 135.021 353.984 135.021 354.448C135.021 355.056 135.229 355.552 135.645 355.936C136.061 356.304 136.637 356.488 137.373 356.488ZM151.032 358.216C149.56 358.216 148.464 357.84 147.744 357.088C147.024 356.336 146.664 355.248 146.664 353.824V348.16H144.384V346.288H146.664V342.76H149.088V346.288H152.712V348.16H149.088V353.632C149.088 354.48 149.264 355.12 149.616 355.552C149.984 355.984 150.576 356.2 151.392 356.2C151.648 356.2 151.896 356.176 152.136 356.128C152.376 356.064 152.616 355.992 152.856 355.912L153.24 357.736C153 357.88 152.664 357.992 152.232 358.072C151.816 358.168 151.416 358.216 151.032 358.216ZM160.184 358.216C158.264 358.216 156.752 357.68 155.648 356.608C154.544 355.52 153.992 354.04 153.992 352.168C153.992 350.968 154.232 349.912 154.712 349C155.208 348.072 155.888 347.352 156.752 346.84C157.616 346.328 158.608 346.072 159.728 346.072C161.344 346.072 162.616 346.592 163.544 347.632C164.472 348.656 164.936 350.072 164.936 351.88V352.696H156.344C156.52 355.128 157.808 356.344 160.208 356.344C160.88 356.344 161.536 356.24 162.176 356.032C162.832 355.824 163.448 355.48 164.024 355L164.744 356.68C164.216 357.16 163.536 357.536 162.704 357.808C161.872 358.08 161.032 358.216 160.184 358.216ZM159.824 347.776C158.816 347.776 158.016 348.088 157.424 348.712C156.832 349.336 156.472 350.168 156.344 351.208H162.896C162.848 350.12 162.56 349.28 162.032 348.688C161.504 348.08 160.768 347.776 159.824 347.776Z" fill="white"/>
<g filter="url(#filter0_d_180_103)">
<mask id="path-4-outside-1_180_103" maskUnits="userSpaceOnUse" x="433" y="50.2461" width="119" height="38" fill="black">
<rect fill="white" x="433" y="50.2461" width="119" height="38"/>
<path d="M450.544 86.2461L435.472 52.4061H442.048L453.232 78.3741L464.416 52.4061H470.752L455.68 86.2461H450.544ZM473.915 86.2461V52.4061H480.059V86.2461H473.915ZM499.079 86.7261C496.423 86.7261 493.959 86.3901 491.687 85.7181C489.415 85.0141 487.495 84.0701 485.927 82.8861L487.799 78.0381C489.367 79.1581 491.079 80.0221 492.935 80.6301C494.823 81.2381 496.871 81.5421 499.079 81.5421C501.607 81.5421 503.447 81.1261 504.599 80.2941C505.751 79.4301 506.327 78.3261 506.327 76.9821C506.327 75.8621 505.911 74.9821 505.079 74.3421C504.279 73.7021 502.887 73.1741 500.903 72.7581L495.623 71.6541C489.607 70.3741 486.599 67.2861 486.599 62.3901C486.599 60.2781 487.159 58.4381 488.279 56.8701C489.399 55.3021 490.951 54.0861 492.935 53.2221C494.919 52.3581 497.207 51.9261 499.799 51.9261C502.103 51.9261 504.263 52.2781 506.279 52.9821C508.295 53.6541 509.975 54.6141 511.319 55.8621L509.447 60.4701C506.791 58.2301 503.559 57.1101 499.751 57.1101C497.543 57.1101 495.815 57.5741 494.567 58.5021C493.319 59.4301 492.695 60.6461 492.695 62.1501C492.695 63.3021 493.079 64.2301 493.847 64.9341C494.615 65.6061 495.927 66.1341 497.783 66.5181L503.015 67.6221C506.183 68.2941 508.535 69.3501 510.071 70.7901C511.639 72.2301 512.423 74.1501 512.423 76.5501C512.423 78.5661 511.879 80.3421 510.791 81.8781C509.703 83.4141 508.151 84.6141 506.135 85.4781C504.151 86.3101 501.799 86.7261 499.079 86.7261ZM513.814 86.2461L529.126 52.4061H534.166L549.478 86.2461H543.238L539.878 78.4221H523.366L520.054 86.2461H513.814ZM531.574 59.0781L525.478 73.5261H537.766L531.67 59.0781H531.574Z"/>
</mask>
<path d="M450.544 86.2461L435.472 52.4061H442.048L453.232 78.3741L464.416 52.4061H470.752L455.68 86.2461H450.544ZM473.915 86.2461V52.4061H480.059V86.2461H473.915ZM499.079 86.7261C496.423 86.7261 493.959 86.3901 491.687 85.7181C489.415 85.0141 487.495 84.0701 485.927 82.8861L487.799 78.0381C489.367 79.1581 491.079 80.0221 492.935 80.6301C494.823 81.2381 496.871 81.5421 499.079 81.5421C501.607 81.5421 503.447 81.1261 504.599 80.2941C505.751 79.4301 506.327 78.3261 506.327 76.9821C506.327 75.8621 505.911 74.9821 505.079 74.3421C504.279 73.7021 502.887 73.1741 500.903 72.7581L495.623 71.6541C489.607 70.3741 486.599 67.2861 486.599 62.3901C486.599 60.2781 487.159 58.4381 488.279 56.8701C489.399 55.3021 490.951 54.0861 492.935 53.2221C494.919 52.3581 497.207 51.9261 499.799 51.9261C502.103 51.9261 504.263 52.2781 506.279 52.9821C508.295 53.6541 509.975 54.6141 511.319 55.8621L509.447 60.4701C506.791 58.2301 503.559 57.1101 499.751 57.1101C497.543 57.1101 495.815 57.5741 494.567 58.5021C493.319 59.4301 492.695 60.6461 492.695 62.1501C492.695 63.3021 493.079 64.2301 493.847 64.9341C494.615 65.6061 495.927 66.1341 497.783 66.5181L503.015 67.6221C506.183 68.2941 508.535 69.3501 510.071 70.7901C511.639 72.2301 512.423 74.1501 512.423 76.5501C512.423 78.5661 511.879 80.3421 510.791 81.8781C509.703 83.4141 508.151 84.6141 506.135 85.4781C504.151 86.3101 501.799 86.7261 499.079 86.7261ZM513.814 86.2461L529.126 52.4061H534.166L549.478 86.2461H543.238L539.878 78.4221H523.366L520.054 86.2461H513.814ZM531.574 59.0781L525.478 73.5261H537.766L531.67 59.0781H531.574Z" fill="white"/>
<path d="M450.544 86.2461L449.631 86.653L449.895 87.2461H450.544V86.2461ZM435.472 52.4061V51.4061H433.932L434.559 52.813L435.472 52.4061ZM442.048 52.4061L442.966 52.0105L442.706 51.4061H442.048V52.4061ZM453.232 78.3741L452.314 78.7696L453.232 80.9022L454.15 78.7696L453.232 78.3741ZM464.416 52.4061V51.4061H463.758L463.498 52.0105L464.416 52.4061ZM470.752 52.4061L471.665 52.813L472.292 51.4061H470.752V52.4061ZM455.68 86.2461V87.2461H456.329L456.593 86.653L455.68 86.2461ZM451.457 85.8392L436.385 51.9992L434.559 52.813L449.631 86.653L451.457 85.8392ZM435.472 53.4061H442.048V51.4061H435.472V53.4061ZM441.13 52.8016L452.314 78.7696L454.15 77.9785L442.966 52.0105L441.13 52.8016ZM454.15 78.7696L465.334 52.8016L463.498 52.0105L452.314 77.9785L454.15 78.7696ZM464.416 53.4061H470.752V51.4061H464.416V53.4061ZM469.839 51.9992L454.767 85.8392L456.593 86.653L471.665 52.813L469.839 51.9992ZM455.68 85.2461H450.544V87.2461H455.68V85.2461ZM473.915 86.2461H472.915V87.2461H473.915V86.2461ZM473.915 52.4061V51.4061H472.915V52.4061H473.915ZM480.059 52.4061H481.059V51.4061H480.059V52.4061ZM480.059 86.2461V87.2461H481.059V86.2461H480.059ZM474.915 86.2461V52.4061H472.915V86.2461H474.915ZM473.915 53.4061H480.059V51.4061H473.915V53.4061ZM479.059 52.4061V86.2461H481.059V52.4061H479.059ZM480.059 85.2461H473.915V87.2461H480.059V85.2461ZM491.687 85.7181L491.391 86.6734L491.403 86.677L491.687 85.7181ZM485.927 82.8861L484.994 82.5259L484.722 83.2296L485.324 83.6841L485.927 82.8861ZM487.799 78.0381L488.38 77.2244L487.33 76.4747L486.866 77.6779L487.799 78.0381ZM492.935 80.6301L492.623 81.5804L492.628 81.582L492.935 80.6301ZM504.599 80.2941L505.184 81.1048L505.192 81.0995L505.199 81.0941L504.599 80.2941ZM505.079 74.3421L504.454 75.123L504.461 75.1289L504.469 75.1347L505.079 74.3421ZM500.903 72.7581L501.108 71.7794L501.107 71.7793L500.903 72.7581ZM495.623 71.6541L495.415 72.6322L495.418 72.6329L495.623 71.6541ZM488.279 56.8701L487.465 56.2889L488.279 56.8701ZM492.935 53.2221L492.535 52.3053L492.935 53.2221ZM506.279 52.9821L505.949 53.9262L505.956 53.9285L505.963 53.9308L506.279 52.9821ZM511.319 55.8621L512.245 56.2385L512.505 55.599L511.999 55.1293L511.319 55.8621ZM509.447 60.4701L508.802 61.2345L509.855 62.1224L510.373 60.8465L509.447 60.4701ZM494.567 58.5021L495.163 59.3046L494.567 58.5021ZM493.847 64.9341L493.171 65.6712L493.18 65.6791L493.188 65.6867L493.847 64.9341ZM497.783 66.5181L497.989 65.5396L497.985 65.5388L497.783 66.5181ZM503.015 67.6221L503.222 66.6439L503.221 66.6436L503.015 67.6221ZM510.071 70.7901L509.387 71.5197L509.394 71.5266L510.071 70.7901ZM510.791 81.8781L509.975 81.3001L510.791 81.8781ZM506.135 85.4781L506.521 86.4003L506.529 86.3972L506.135 85.4781ZM499.079 85.7261C496.507 85.7261 494.14 85.4009 491.97 84.7592L491.403 86.677C493.778 87.3793 496.338 87.7261 499.079 87.7261V85.7261ZM491.983 84.7629C489.799 84.0862 487.988 83.1894 486.529 82.0881L485.324 83.6841C487.002 84.9508 489.031 85.942 491.391 86.6733L491.983 84.7629ZM486.86 83.2463L488.732 78.3983L486.866 77.6779L484.994 82.5259L486.86 83.2463ZM487.218 78.8518C488.869 80.0316 490.672 80.9413 492.623 81.5804L493.246 79.6798C491.485 79.1029 489.864 78.2846 488.38 77.2244L487.218 78.8518ZM492.628 81.582C494.626 82.2252 496.778 82.5421 499.079 82.5421V80.5421C496.963 80.5421 495.02 80.2509 493.241 79.6782L492.628 81.582ZM499.079 82.5421C501.673 82.5421 503.774 82.1236 505.184 81.1048L504.013 79.4834C503.12 80.1286 501.541 80.5421 499.079 80.5421V82.5421ZM505.199 81.0941C506.582 80.0569 507.327 78.6661 507.327 76.9821H505.327C505.327 77.9861 504.92 78.8033 503.999 79.4941L505.199 81.0941ZM507.327 76.9821C507.327 75.5757 506.785 74.393 505.688 73.5495L504.469 75.1347C505.036 75.5712 505.327 76.1485 505.327 76.9821H507.327ZM505.703 73.5612C504.711 72.7674 503.123 72.202 501.108 71.7794L500.698 73.7368C502.65 74.1462 503.846 74.6368 504.454 75.123L505.703 73.5612ZM501.107 71.7793L495.827 70.6753L495.418 72.6329L500.698 73.7369L501.107 71.7793ZM495.831 70.676C492.937 70.0603 490.89 69.0342 489.571 67.6803C488.274 66.3488 487.599 64.6158 487.599 62.3901H485.599C485.599 65.0604 486.427 67.3194 488.138 69.0759C489.828 70.81 492.292 71.9678 495.415 72.6322L495.831 70.676ZM487.599 62.3901C487.599 60.4655 488.105 58.8334 489.092 57.4513L487.465 56.2889C486.212 58.0428 485.599 60.0907 485.599 62.3901H487.599ZM489.092 57.4513C490.095 56.0482 491.495 54.9398 493.334 54.1389L492.535 52.3053C490.406 53.2324 488.703 54.556 487.465 56.2889L489.092 57.4513ZM493.334 54.1389C495.17 53.3395 497.317 52.9261 499.799 52.9261V50.9261C497.096 50.9261 494.668 51.3767 492.535 52.3053L493.334 54.1389ZM499.799 52.9261C501.999 52.9261 504.047 53.262 505.949 53.9262L506.608 52.038C504.478 51.2942 502.206 50.9261 499.799 50.9261V52.9261ZM505.963 53.9308C507.864 54.5648 509.414 55.4583 510.638 56.5949L511.999 55.1293C510.535 53.7699 508.725 52.7434 506.595 52.0334L505.963 53.9308ZM510.392 55.4857L508.52 60.0937L510.373 60.8465L512.245 56.2385L510.392 55.4857ZM510.091 59.7057C507.237 57.2986 503.77 56.1101 499.751 56.1101V58.1101C503.347 58.1101 506.344 59.1616 508.802 61.2345L510.091 59.7057ZM499.751 56.1101C497.415 56.1101 495.45 56.5995 493.97 57.6996L495.163 59.3046C496.18 58.5487 497.67 58.1101 499.751 58.1101V56.1101ZM493.97 57.6996C492.478 58.8088 491.695 60.3174 491.695 62.1501H493.695C493.695 60.9747 494.159 60.0514 495.163 59.3046L493.97 57.6996ZM491.695 62.1501C491.695 63.5494 492.173 64.7566 493.171 65.6712L494.522 64.1969C493.984 63.7035 493.695 63.0548 493.695 62.1501H491.695ZM493.188 65.6867C494.156 66.5331 495.677 67.1037 497.58 67.4974L497.985 65.5388C496.176 65.1645 495.074 64.6791 494.505 64.1815L493.188 65.6867ZM497.576 67.4965L502.808 68.6005L503.221 66.6436L497.989 65.5396L497.576 67.4965ZM502.807 68.6003C505.885 69.2532 508.037 70.2544 509.387 71.5196L510.755 70.0606C509.032 68.4458 506.48 67.335 503.222 66.6439L502.807 68.6003ZM509.394 71.5266C510.729 72.7521 511.423 74.3906 511.423 76.5501H513.423C513.423 73.9095 512.549 71.7081 510.747 70.0536L509.394 71.5266ZM511.423 76.5501C511.423 78.3746 510.934 79.9453 509.975 81.3001L511.607 82.4561C512.823 80.7389 513.423 78.7576 513.423 76.5501H511.423ZM509.975 81.3001C509.01 82.6622 507.616 83.7554 505.741 84.5589L506.529 86.3972C508.686 85.4728 510.396 84.1659 511.607 82.4561L509.975 81.3001ZM505.748 84.5559C503.914 85.3249 501.7 85.7261 499.079 85.7261V87.7261C501.898 87.7261 504.387 87.2953 506.521 86.4003L505.748 84.5559ZM513.814 86.2461L512.903 85.8339L512.264 87.2461H513.814V86.2461ZM529.126 52.4061V51.4061H528.48L528.215 51.9938L529.126 52.4061ZM534.166 52.4061L535.077 51.9938L534.811 51.4061H534.166V52.4061ZM549.478 86.2461V87.2461H551.028L550.389 85.8339L549.478 86.2461ZM543.238 86.2461L542.319 86.6407L542.579 87.2461H543.238V86.2461ZM539.878 78.4221L540.796 78.0275L540.536 77.4221H539.878V78.4221ZM523.366 78.4221V77.4221H522.703L522.445 78.0323L523.366 78.4221ZM520.054 86.2461V87.2461H520.716L520.975 86.6359L520.054 86.2461ZM531.574 59.0781V58.0781H530.91L530.652 58.6894L531.574 59.0781ZM525.478 73.5261L524.556 73.1374L523.97 74.5261H525.478V73.5261ZM537.766 73.5261V74.5261H539.273L538.687 73.1374L537.766 73.5261ZM531.67 59.0781L532.591 58.6894L532.333 58.0781H531.67V59.0781ZM514.725 86.6583L530.037 52.8183L528.215 51.9938L512.903 85.8339L514.725 86.6583ZM529.126 53.4061H534.166V51.4061H529.126V53.4061ZM533.255 52.8183L548.567 86.6583L550.389 85.8339L535.077 51.9938L533.255 52.8183ZM549.478 85.2461H543.238V87.2461H549.478V85.2461ZM544.156 85.8515L540.796 78.0275L538.959 78.8167L542.319 86.6407L544.156 85.8515ZM539.878 77.4221H523.366V79.4221H539.878V77.4221ZM522.445 78.0323L519.133 85.8563L520.975 86.6359L524.287 78.8119L522.445 78.0323ZM520.054 85.2461H513.814V87.2461H520.054V85.2461ZM530.652 58.6894L524.556 73.1374L526.399 73.9148L532.495 59.4668L530.652 58.6894ZM525.478 74.5261H537.766V72.5261H525.478V74.5261ZM538.687 73.1374L532.591 58.6894L530.748 59.4668L536.844 73.9148L538.687 73.1374ZM531.67 58.0781H531.574V60.0781H531.67V58.0781Z" fill="white" mask="url(#path-4-outside-1_180_103)"/>
</g>
<path d="M593.5 0C593.5 154.5 507.071 250 369 250C230.929 250 119 138.071 119 0C593.5 0 109.5 5.24521e-05 351.5 2.6226e-05C593.5 0 119 0 593.5 0Z" fill="white" fill-opacity="0.3"/>
<path d="M573.5 0C584.546 0 593.5 8.94394 593.5 19.9896C593.5 83.4177 593.5 250 593.5 250C562 250 593.5 250 575.5 250C542.67 250 510.161 243.534 479.829 230.97C449.498 218.406 421.938 199.991 398.723 176.777C375.509 153.562 357.094 126.002 344.53 95.6709C331.966 65.3395 325 32.8305 325 0H573.5Z" fill="white" fill-opacity="0.3"/>
<defs>
<filter id="filter0_d_180_103" x="431.472" y="51.9258" width="122.006" height="42.8008" filterUnits="userSpaceOnUse" color-interpolation-filters="sRGB">
<feFlood flood-opacity="0" result="BackgroundImageFix"/>
<feColorMatrix in="SourceAlpha" type="matrix" values="0 0 0 0 0 0 0 0 0 0 0 0 0 0 0 0 0 0 127 0" result="hardAlpha"/>
<feOffset dy="4"/>
<feGaussianBlur stdDeviation="2"/>
<feComposite in2="hardAlpha" operator="out"/>
<feColorMatrix type="matrix" values="0 0 0 0 0 0 0 0 0 0 0 0 0 0 0 0 0 0 0.25 0"/>
<feBlend mode="normal" in2="BackgroundImageFix" result="effect1_dropShadow_180_103"/>
<feBlend mode="normal" in="SourceGraphic" in2="effect1_dropShadow_180_103" result="shape"/>
</filter>
</defs>
</svg>
