<svg width="594" height="418" viewBox="0 0 594 418" fill="none" xmlns="http://www.w3.org/2000/svg">
<rect width="594" height="418" rx="20" fill="#0165FC"/>
<g filter="url(#filter0_d_180_101)">
<path d="M47.564 242.6V237.776H36.512V234.392L48.356 217.22H52.172V233.96H55.736V237.776H52.172V242.6H47.564ZM47.564 233.96V224.276L40.94 233.96H47.564ZM59.6819 242.6L71.1299 221.072H58.5659V217.22H76.2419V220.676L64.7579 242.6H59.6819ZM82.0959 242.6V238.784H87.8199V222.476L83.3919 225.14L81.5919 221.756L89.1519 217.22H92.4279V238.784H97.7919V242.6H82.0959ZM111.494 242.96C108.35 242.96 105.914 241.856 104.186 239.648C102.482 237.44 101.63 234.344 101.63 230.36C101.63 226.064 102.59 222.74 104.51 220.388C106.454 218.036 109.13 216.86 112.538 216.86C113.882 216.86 115.214 217.112 116.534 217.616C117.854 218.096 118.982 218.792 119.918 219.704L118.406 223.16C117.518 222.344 116.57 221.744 115.562 221.36C114.554 220.952 113.522 220.748 112.466 220.748C110.378 220.748 108.782 221.48 107.678 222.944C106.574 224.408 106.022 226.592 106.022 229.496V230.54C106.526 229.22 107.342 228.188 108.47 227.444C109.598 226.7 110.894 226.328 112.358 226.328C113.822 226.328 115.118 226.676 116.246 227.372C117.374 228.068 118.262 229.028 118.91 230.252C119.558 231.476 119.882 232.88 119.882 234.464C119.882 236.096 119.522 237.56 118.802 238.856C118.106 240.128 117.122 241.136 115.85 241.88C114.602 242.6 113.15 242.96 111.494 242.96ZM111.242 239.288C112.538 239.288 113.582 238.868 114.374 238.028C115.19 237.164 115.598 236.036 115.598 234.644C115.598 233.252 115.19 232.124 114.374 231.26C113.582 230.396 112.538 229.964 111.242 229.964C109.946 229.964 108.89 230.396 108.074 231.26C107.282 232.124 106.886 233.252 106.886 234.644C106.886 236.036 107.282 237.164 108.074 238.028C108.89 238.868 109.946 239.288 111.242 239.288ZM139.903 242.96C138.559 242.96 137.227 242.708 135.907 242.204C134.587 241.676 133.447 240.968 132.487 240.08L134.035 236.624C134.899 237.44 135.835 238.052 136.843 238.46C137.875 238.868 138.907 239.072 139.939 239.072C142.051 239.072 143.659 238.34 144.763 236.876C145.867 235.412 146.419 233.228 146.419 230.324V229.244C145.939 230.564 145.135 231.608 144.007 232.376C142.879 233.12 141.559 233.492 140.047 233.492C138.607 233.492 137.323 233.144 136.195 232.448C135.067 231.752 134.167 230.792 133.495 229.568C132.847 228.32 132.523 226.916 132.523 225.356C132.523 223.7 132.883 222.236 133.603 220.964C134.323 219.692 135.307 218.696 136.555 217.976C137.827 217.232 139.279 216.86 140.911 216.86C144.079 216.86 146.515 217.964 148.219 220.172C149.923 222.356 150.775 225.452 150.775 229.46C150.775 233.732 149.815 237.056 147.895 239.432C145.975 241.784 143.311 242.96 139.903 242.96ZM141.199 229.82C142.495 229.82 143.539 229.4 144.331 228.56C145.147 227.696 145.555 226.568 145.555 225.176C145.555 223.784 145.147 222.656 144.331 221.792C143.539 220.928 142.495 220.496 141.199 220.496C139.903 220.496 138.847 220.928 138.031 221.792C137.239 222.656 136.843 223.784 136.843 225.176C136.843 226.568 137.239 227.696 138.031 228.56C138.847 229.4 139.903 229.82 141.199 229.82ZM164.369 242.96C161.225 242.96 158.789 241.856 157.061 239.648C155.357 237.44 154.505 234.344 154.505 230.36C154.505 226.064 155.465 222.74 157.385 220.388C159.329 218.036 162.005 216.86 165.413 216.86C166.757 216.86 168.089 217.112 169.409 217.616C170.729 218.096 171.857 218.792 172.793 219.704L171.281 223.16C170.393 222.344 169.445 221.744 168.437 221.36C167.429 220.952 166.397 220.748 165.341 220.748C163.253 220.748 161.657 221.48 160.553 222.944C159.449 224.408 158.897 226.592 158.897 229.496V230.54C159.401 229.22 160.217 228.188 161.345 227.444C162.473 226.7 163.769 226.328 165.233 226.328C166.697 226.328 167.993 226.676 169.121 227.372C170.249 228.068 171.137 229.028 171.785 230.252C172.433 231.476 172.757 232.88 172.757 234.464C172.757 236.096 172.397 237.56 171.677 238.856C170.981 240.128 169.997 241.136 168.725 241.88C167.477 242.6 166.025 242.96 164.369 242.96ZM164.117 239.288C165.413 239.288 166.457 238.868 167.249 238.028C168.065 237.164 168.473 236.036 168.473 234.644C168.473 233.252 168.065 232.124 167.249 231.26C166.457 230.396 165.413 229.964 164.117 229.964C162.821 229.964 161.765 230.396 160.949 231.26C160.157 232.124 159.761 233.252 159.761 234.644C159.761 236.036 160.157 237.164 160.949 238.028C161.765 238.868 162.821 239.288 164.117 239.288ZM177.099 242.6V239.18L185.307 230.432C186.411 229.232 187.203 228.176 187.683 227.264C188.163 226.328 188.403 225.38 188.403 224.42C188.403 221.972 186.927 220.748 183.975 220.748C181.671 220.748 179.547 221.612 177.603 223.34L176.055 219.884C177.063 218.972 178.323 218.24 179.835 217.688C181.347 217.136 182.919 216.86 184.551 216.86C187.263 216.86 189.339 217.472 190.779 218.696C192.243 219.92 192.975 221.672 192.975 223.952C192.975 225.488 192.603 226.964 191.859 228.38C191.139 229.796 189.999 231.32 188.439 232.952L182.859 238.784H193.947V242.6H177.099ZM198.901 242.6L210.349 221.072H197.785V217.22H215.461V220.676L203.977 242.6H198.901ZM231.018 242.6V238.784H236.742V222.476L232.314 225.14L230.514 221.756L238.074 217.22H241.35V238.784H246.714V242.6H231.018ZM260.416 242.96C257.272 242.96 254.836 241.856 253.108 239.648C251.404 237.44 250.552 234.344 250.552 230.36C250.552 226.064 251.512 222.74 253.432 220.388C255.376 218.036 258.052 216.86 261.46 216.86C262.804 216.86 264.136 217.112 265.456 217.616C266.776 218.096 267.904 218.792 268.84 219.704L267.328 223.16C266.44 222.344 265.492 221.744 264.484 221.36C263.476 220.952 262.444 220.748 261.388 220.748C259.3 220.748 257.704 221.48 256.6 222.944C255.496 224.408 254.944 226.592 254.944 229.496V230.54C255.448 229.22 256.264 228.188 257.392 227.444C258.52 226.7 259.816 226.328 261.28 226.328C262.744 226.328 264.04 226.676 265.168 227.372C266.296 228.068 267.184 229.028 267.832 230.252C268.48 231.476 268.804 232.88 268.804 234.464C268.804 236.096 268.444 237.56 267.724 238.856C267.028 240.128 266.044 241.136 264.772 241.88C263.524 242.6 262.072 242.96 260.416 242.96ZM260.164 239.288C261.46 239.288 262.504 238.868 263.296 238.028C264.112 237.164 264.52 236.036 264.52 234.644C264.52 233.252 264.112 232.124 263.296 231.26C262.504 230.396 261.46 229.964 260.164 229.964C258.868 229.964 257.812 230.396 256.996 231.26C256.204 232.124 255.808 233.252 255.808 234.644C255.808 236.036 256.204 237.164 256.996 238.028C257.812 238.868 258.868 239.288 260.164 239.288ZM280.562 242.96C278.834 242.96 277.178 242.708 275.594 242.204C274.034 241.676 272.738 240.968 271.706 240.08L273.218 236.552C275.378 238.232 277.778 239.072 280.418 239.072C283.658 239.072 285.278 237.8 285.278 235.256C285.278 234.056 284.87 233.168 284.054 232.592C283.262 231.992 282.098 231.692 280.562 231.692H276.494V227.876H280.13C281.474 227.876 282.542 227.552 283.334 226.904C284.126 226.232 284.522 225.308 284.522 224.132C284.522 223.028 284.15 222.188 283.406 221.612C282.686 221.036 281.63 220.748 280.238 220.748C277.742 220.748 275.546 221.612 273.65 223.34L272.138 219.884C273.146 218.924 274.406 218.18 275.918 217.652C277.43 217.124 279.002 216.86 280.634 216.86C283.274 216.86 285.326 217.46 286.79 218.66C288.254 219.836 288.986 221.48 288.986 223.592C288.986 224.96 288.638 226.16 287.942 227.192C287.246 228.224 286.298 228.968 285.098 229.424C286.562 229.832 287.702 230.588 288.518 231.692C289.334 232.772 289.742 234.092 289.742 235.652C289.742 237.908 288.926 239.696 287.294 241.016C285.662 242.312 283.418 242.96 280.562 242.96ZM302.868 242.96C301.212 242.96 299.604 242.708 298.044 242.204C296.484 241.676 295.212 240.968 294.228 240.08L295.74 236.552C297.924 238.232 300.276 239.072 302.796 239.072C304.308 239.072 305.484 238.688 306.324 237.92C307.188 237.128 307.62 236.072 307.62 234.752C307.62 233.408 307.212 232.328 306.396 231.512C305.58 230.672 304.464 230.252 303.048 230.252C301.032 230.252 299.364 231.056 298.044 232.664H294.948V217.22H310.536V221.036H299.448V227.912C300.72 226.952 302.28 226.472 304.128 226.472C305.736 226.472 307.128 226.82 308.304 227.516C309.504 228.188 310.428 229.136 311.076 230.36C311.748 231.56 312.084 232.964 312.084 234.572C312.084 236.228 311.712 237.692 310.968 238.964C310.224 240.212 309.156 241.196 307.764 241.916C306.396 242.612 304.764 242.96 302.868 242.96ZM333.941 242.96C330.989 242.96 328.673 242.324 326.993 241.052C325.337 239.78 324.509 238.016 324.509 235.76C324.509 234.224 324.905 232.916 325.697 231.836C326.513 230.756 327.569 230 328.865 229.568C327.713 229.064 326.801 228.296 326.129 227.264C325.481 226.232 325.157 225.044 325.157 223.7C325.157 221.564 325.949 219.896 327.533 218.696C329.117 217.472 331.253 216.86 333.941 216.86C336.653 216.86 338.801 217.472 340.385 218.696C341.969 219.896 342.761 221.564 342.761 223.7C342.761 225.044 342.425 226.244 341.753 227.3C341.105 228.332 340.217 229.088 339.089 229.568C340.385 230 341.417 230.768 342.185 231.872C342.977 232.952 343.373 234.248 343.373 235.76C343.373 238.016 342.533 239.78 340.853 241.052C339.197 242.324 336.893 242.96 333.941 242.96ZM333.941 227.948C335.357 227.948 336.461 227.612 337.253 226.94C338.069 226.268 338.477 225.344 338.477 224.168C338.477 223.016 338.069 222.116 337.253 221.468C336.461 220.796 335.357 220.46 333.941 220.46C332.525 220.46 331.421 220.796 330.629 221.468C329.837 222.116 329.441 223.016 329.441 224.168C329.441 225.344 329.837 226.268 330.629 226.94C331.421 227.612 332.525 227.948 333.941 227.948ZM333.941 239.36C337.373 239.36 339.089 238.052 339.089 235.436C339.089 232.844 337.373 231.548 333.941 231.548C332.261 231.548 330.977 231.872 330.089 232.52C329.225 233.168 328.793 234.14 328.793 235.436C328.793 236.732 329.225 237.716 330.089 238.388C330.977 239.036 332.261 239.36 333.941 239.36ZM355.527 242.96C352.527 242.96 350.235 241.832 348.651 239.576C347.067 237.296 346.275 234.056 346.275 229.856C346.275 225.608 347.067 222.38 348.651 220.172C350.235 217.964 352.527 216.86 355.527 216.86C358.551 216.86 360.843 217.964 362.403 220.172C363.987 222.38 364.779 225.596 364.779 229.82C364.779 234.044 363.987 237.296 362.403 239.576C360.819 241.832 358.527 242.96 355.527 242.96ZM355.527 239.18C357.159 239.18 358.359 238.436 359.127 236.948C359.919 235.436 360.315 233.06 360.315 229.82C360.315 226.604 359.919 224.276 359.127 222.836C358.359 221.372 357.159 220.64 355.527 220.64C353.919 220.64 352.719 221.372 351.927 222.836C351.135 224.276 350.739 226.604 350.739 229.82C350.739 233.06 351.135 235.436 351.927 236.948C352.719 238.436 353.919 239.18 355.527 239.18ZM369.409 242.6L380.857 221.072H368.293V217.22H385.969V220.676L374.485 242.6H369.409ZM400.462 242.6V237.776H389.41V234.392L401.254 217.22H405.07V233.96H408.634V237.776H405.07V242.6H400.462ZM400.462 233.96V224.276L393.838 233.96H400.462Z" fill="white"/>
</g>
<path d="M47.552 322.216C45.84 322.216 44.376 321.864 43.16 321.16C41.944 320.456 41.008 319.456 40.352 318.16C39.712 316.848 39.392 315.304 39.392 313.528C39.392 311.752 39.712 310.216 40.352 308.92C41.008 307.624 41.944 306.624 43.16 305.92C44.376 305.216 45.84 304.864 47.552 304.864C48.704 304.864 49.776 305.048 50.768 305.416C51.776 305.768 52.616 306.28 53.288 306.952L52.424 308.944C51.688 308.288 50.928 307.816 50.144 307.528C49.376 307.224 48.536 307.072 47.624 307.072C45.8 307.072 44.408 307.632 43.448 308.752C42.488 309.872 42.008 311.464 42.008 313.528C42.008 315.592 42.488 317.192 43.448 318.328C44.408 319.448 45.8 320.008 47.624 320.008C48.536 320.008 49.376 319.864 50.144 319.576C50.928 319.272 51.688 318.792 52.424 318.136L53.288 320.128C52.616 320.784 51.776 321.296 50.768 321.664C49.776 322.032 48.704 322.216 47.552 322.216ZM59.2683 322.216C58.4523 322.216 57.7243 322.056 57.0843 321.736C56.4443 321.416 55.9323 320.984 55.5483 320.44C55.1803 319.896 54.9963 319.28 54.9963 318.592C54.9963 317.728 55.2123 317.048 55.6443 316.552C56.0923 316.056 56.8203 315.696 57.8283 315.472C58.8523 315.248 60.2283 315.136 61.9563 315.136H62.7723V314.512C62.7723 313.6 62.5803 312.944 62.1963 312.544C61.8123 312.144 61.1803 311.944 60.3003 311.944C59.6283 311.944 58.9563 312.048 58.2843 312.256C57.6123 312.448 56.9243 312.76 56.2203 313.192L55.4763 311.488C56.0843 311.056 56.8443 310.712 57.7563 310.456C58.6683 310.2 59.5403 310.072 60.3723 310.072C61.9723 310.072 63.1563 310.456 63.9243 311.224C64.6923 311.976 65.0763 313.16 65.0763 314.776V322H62.7963V320.056C62.5083 320.728 62.0603 321.256 61.4523 321.64C60.8443 322.024 60.1163 322.216 59.2683 322.216ZM59.7483 320.488C60.6123 320.488 61.3323 320.184 61.9083 319.576C62.4843 318.968 62.7723 318.2 62.7723 317.272V316.624H61.9803C60.8123 316.624 59.8923 316.68 59.2203 316.792C58.5643 316.904 58.0923 317.096 57.8043 317.368C57.5323 317.624 57.3963 317.984 57.3963 318.448C57.3963 319.056 57.6043 319.552 58.0203 319.936C58.4363 320.304 59.0123 320.488 59.7483 320.488ZM68.4149 322V310.288H70.7669V312.376C71.3749 310.984 72.6389 310.208 74.5589 310.048L75.3509 310L75.5189 312.064L74.0549 312.208C71.9269 312.416 70.8629 313.512 70.8629 315.496V322H68.4149ZM81.668 322.216C80.644 322.216 79.74 321.976 78.956 321.496C78.188 321 77.588 320.296 77.156 319.384C76.724 318.472 76.508 317.392 76.508 316.144C76.508 314.896 76.724 313.824 77.156 312.928C77.588 312.016 78.188 311.312 78.956 310.816C79.724 310.32 80.628 310.072 81.668 310.072C82.548 310.072 83.332 310.264 84.02 310.648C84.708 311.032 85.22 311.552 85.556 312.208V305.08H87.98V322H85.604V319.96C85.268 320.664 84.748 321.216 84.044 321.616C83.356 322.016 82.564 322.216 81.668 322.216ZM82.292 320.344C83.284 320.344 84.084 319.984 84.692 319.264C85.3 318.544 85.604 317.504 85.604 316.144C85.604 314.784 85.3 313.752 84.692 313.048C84.084 312.328 83.284 311.968 82.292 311.968C81.284 311.968 80.476 312.328 79.868 313.048C79.26 313.752 78.956 314.784 78.956 316.144C78.956 317.504 79.26 318.544 79.868 319.264C80.476 319.984 81.284 320.344 82.292 320.344ZM97.9524 322V305.08H100.448V312.376H109.928V305.08H112.4V322H109.928V314.464H100.448V322H97.9524ZM121.175 322.216C119.991 322.216 118.967 321.968 118.103 321.472C117.239 320.976 116.567 320.28 116.087 319.384C115.623 318.472 115.391 317.392 115.391 316.144C115.391 314.896 115.623 313.824 116.087 312.928C116.567 312.016 117.239 311.312 118.103 310.816C118.967 310.32 119.991 310.072 121.175 310.072C122.327 310.072 123.335 310.32 124.199 310.816C125.063 311.312 125.735 312.016 126.215 312.928C126.695 313.824 126.935 314.896 126.935 316.144C126.935 317.392 126.695 318.472 126.215 319.384C125.735 320.28 125.063 320.976 124.199 321.472C123.335 321.968 122.327 322.216 121.175 322.216ZM121.175 320.344C122.167 320.344 122.967 319.984 123.575 319.264C124.183 318.544 124.487 317.504 124.487 316.144C124.487 314.784 124.183 313.752 123.575 313.048C122.967 312.328 122.167 311.968 121.175 311.968C120.167 311.968 119.359 312.328 118.751 313.048C118.143 313.752 117.839 314.784 117.839 316.144C117.839 317.504 118.143 318.544 118.751 319.264C119.359 319.984 120.167 320.344 121.175 320.344ZM133.473 322.216C132.193 322.216 131.233 321.856 130.593 321.136C129.969 320.416 129.657 319.36 129.657 317.968V305.08H132.081V317.824C132.081 319.408 132.729 320.2 134.025 320.2C134.217 320.2 134.393 320.192 134.553 320.176C134.729 320.16 134.905 320.128 135.081 320.08L135.033 322.024C134.489 322.152 133.969 322.216 133.473 322.216ZM141.34 322.216C140.316 322.216 139.412 321.976 138.628 321.496C137.86 321 137.26 320.296 136.828 319.384C136.396 318.472 136.18 317.392 136.18 316.144C136.18 314.896 136.396 313.824 136.828 312.928C137.26 312.016 137.86 311.312 138.628 310.816C139.396 310.32 140.3 310.072 141.34 310.072C142.22 310.072 143.004 310.264 143.692 310.648C144.38 311.032 144.892 311.552 145.228 312.208V305.08H147.652V322H145.276V319.96C144.94 320.664 144.42 321.216 143.716 321.616C143.028 322.016 142.236 322.216 141.34 322.216ZM141.964 320.344C142.956 320.344 143.756 319.984 144.364 319.264C144.972 318.544 145.276 317.504 145.276 316.144C145.276 314.784 144.972 313.752 144.364 313.048C143.756 312.328 142.956 311.968 141.964 311.968C140.956 311.968 140.148 312.328 139.54 313.048C138.932 313.752 138.628 314.784 138.628 316.144C138.628 317.504 138.932 318.544 139.54 319.264C140.148 319.984 140.956 320.344 141.964 320.344ZM156.552 322.216C154.632 322.216 153.12 321.68 152.016 320.608C150.912 319.52 150.36 318.04 150.36 316.168C150.36 314.968 150.6 313.912 151.08 313C151.576 312.072 152.256 311.352 153.12 310.84C153.984 310.328 154.976 310.072 156.096 310.072C157.712 310.072 158.984 310.592 159.912 311.632C160.84 312.656 161.304 314.072 161.304 315.88V316.696H152.712C152.888 319.128 154.176 320.344 156.576 320.344C157.248 320.344 157.904 320.24 158.544 320.032C159.2 319.824 159.816 319.48 160.392 319L161.112 320.68C160.584 321.16 159.904 321.536 159.072 321.808C158.24 322.08 157.4 322.216 156.552 322.216ZM156.192 311.776C155.184 311.776 154.384 312.088 153.792 312.712C153.2 313.336 152.84 314.168 152.712 315.208H159.264C159.216 314.12 158.928 313.28 158.4 312.688C157.872 312.08 157.136 311.776 156.192 311.776ZM163.946 322V310.288H166.298V312.376C166.906 310.984 168.17 310.208 170.09 310.048L170.882 310L171.05 312.064L169.586 312.208C167.458 312.416 166.394 313.512 166.394 315.496V322H163.946ZM179.468 322V305.08H181.364L191.06 317.872V305.08H193.364V322H191.516L181.772 309.16V322H179.468ZM200.784 322.216C199.968 322.216 199.24 322.056 198.6 321.736C197.96 321.416 197.448 320.984 197.064 320.44C196.696 319.896 196.512 319.28 196.512 318.592C196.512 317.728 196.728 317.048 197.16 316.552C197.608 316.056 198.336 315.696 199.344 315.472C200.368 315.248 201.744 315.136 203.472 315.136H204.288V314.512C204.288 313.6 204.096 312.944 203.712 312.544C203.328 312.144 202.696 311.944 201.816 311.944C201.144 311.944 200.472 312.048 199.8 312.256C199.128 312.448 198.44 312.76 197.736 313.192L196.992 311.488C197.6 311.056 198.36 310.712 199.272 310.456C200.184 310.2 201.056 310.072 201.888 310.072C203.488 310.072 204.672 310.456 205.44 311.224C206.208 311.976 206.592 313.16 206.592 314.776V322H204.312V320.056C204.024 320.728 203.576 321.256 202.968 321.64C202.36 322.024 201.632 322.216 200.784 322.216ZM201.264 320.488C202.128 320.488 202.848 320.184 203.424 319.576C204 318.968 204.288 318.2 204.288 317.272V316.624H203.496C202.328 316.624 201.408 316.68 200.736 316.792C200.08 316.904 199.608 317.096 199.32 317.368C199.048 317.624 198.912 317.984 198.912 318.448C198.912 319.056 199.12 319.552 199.536 319.936C199.952 320.304 200.528 320.488 201.264 320.488ZM209.979 322V310.288H212.331V312.184C212.683 311.512 213.171 310.992 213.795 310.624C214.419 310.256 215.147 310.072 215.979 310.072C217.771 310.072 218.931 310.856 219.459 312.424C219.827 311.688 220.355 311.112 221.043 310.696C221.731 310.28 222.515 310.072 223.395 310.072C226.019 310.072 227.331 311.64 227.331 314.776V322H224.907V314.896C224.907 313.904 224.731 313.176 224.379 312.712C224.043 312.248 223.483 312.016 222.699 312.016C221.819 312.016 221.123 312.328 220.611 312.952C220.099 313.56 219.843 314.392 219.843 315.448V322H217.419V314.896C217.419 313.904 217.251 313.176 216.915 312.712C216.579 312.248 216.019 312.016 215.235 312.016C214.355 312.016 213.659 312.328 213.147 312.952C212.651 313.56 212.403 314.392 212.403 315.448V322H209.979ZM236.216 322.216C234.296 322.216 232.784 321.68 231.68 320.608C230.576 319.52 230.024 318.04 230.024 316.168C230.024 314.968 230.264 313.912 230.744 313C231.24 312.072 231.92 311.352 232.784 310.84C233.648 310.328 234.64 310.072 235.76 310.072C237.376 310.072 238.648 310.592 239.576 311.632C240.504 312.656 240.968 314.072 240.968 315.88V316.696H232.376C232.552 319.128 233.84 320.344 236.24 320.344C236.912 320.344 237.568 320.24 238.208 320.032C238.864 319.824 239.48 319.48 240.056 319L240.776 320.68C240.248 321.16 239.568 321.536 238.736 321.808C237.904 322.08 237.064 322.216 236.216 322.216ZM235.856 311.776C234.848 311.776 234.048 312.088 233.456 312.712C232.864 313.336 232.504 314.168 232.376 315.208H238.928C238.88 314.12 238.592 313.28 238.064 312.688C237.536 312.08 236.8 311.776 235.856 311.776Z" fill="white"/>
<g filter="url(#filter1_d_180_101)">
<path d="M270.088 313.292V296.372H280.768V298.028H272.008V303.884H280.264V305.54H272.008V311.636H280.768V313.292H270.088ZM287.565 313.508C286.653 313.508 285.789 313.38 284.973 313.124C284.157 312.868 283.485 312.508 282.957 312.044L283.581 310.676C284.157 311.14 284.789 311.484 285.477 311.708C286.181 311.916 286.893 312.02 287.613 312.02C288.525 312.02 289.213 311.852 289.677 311.516C290.141 311.18 290.373 310.724 290.373 310.148C290.373 309.7 290.221 309.348 289.917 309.092C289.613 308.82 289.133 308.612 288.477 308.468L286.293 307.988C284.309 307.556 283.317 306.532 283.317 304.916C283.317 303.86 283.733 303.012 284.565 302.372C285.413 301.732 286.517 301.412 287.877 301.412C288.677 301.412 289.437 301.54 290.157 301.796C290.893 302.036 291.501 302.396 291.981 302.876L291.333 304.244C290.869 303.812 290.325 303.484 289.701 303.26C289.093 303.02 288.485 302.9 287.877 302.9C286.981 302.9 286.301 303.076 285.837 303.428C285.373 303.78 285.141 304.244 285.141 304.82C285.141 305.716 285.733 306.292 286.917 306.548L289.101 307.004C290.125 307.228 290.901 307.588 291.429 308.084C291.957 308.564 292.221 309.22 292.221 310.052C292.221 311.124 291.797 311.972 290.949 312.596C290.101 313.204 288.973 313.508 287.565 313.508ZM299.746 313.508C298.37 313.508 297.338 313.148 296.65 312.428C295.962 311.692 295.618 310.636 295.618 309.26V303.14H293.338V301.628H295.618V298.052H297.562V301.628H301.258V303.14H297.562V309.068C297.562 309.98 297.754 310.676 298.138 311.156C298.522 311.62 299.146 311.852 300.01 311.852C300.266 311.852 300.522 311.82 300.778 311.756C301.034 311.692 301.266 311.628 301.474 311.564L301.81 313.052C301.602 313.164 301.298 313.268 300.898 313.364C300.498 313.46 300.114 313.508 299.746 313.508ZM303.457 313.292V296.372H305.401V303.548C305.785 302.844 306.321 302.316 307.009 301.964C307.713 301.596 308.497 301.412 309.361 301.412C312.129 301.412 313.513 302.948 313.513 306.02V313.292H311.569V306.14C311.569 305.052 311.353 304.26 310.921 303.764C310.505 303.252 309.833 302.996 308.905 302.996C307.833 302.996 306.977 303.332 306.337 304.004C305.713 304.66 305.401 305.54 305.401 306.644V313.292H303.457ZM322.353 313.508C320.513 313.508 319.057 312.972 317.985 311.9C316.913 310.812 316.377 309.34 316.377 307.484C316.377 306.284 316.617 305.228 317.097 304.316C317.577 303.388 318.233 302.676 319.065 302.18C319.913 301.668 320.889 301.412 321.993 301.412C323.577 301.412 324.817 301.924 325.713 302.948C326.609 303.956 327.057 305.348 327.057 307.124V307.868H318.273C318.337 309.196 318.721 310.212 319.425 310.916C320.129 311.604 321.105 311.948 322.353 311.948C323.057 311.948 323.729 311.844 324.369 311.636C325.009 311.412 325.617 311.052 326.193 310.556L326.865 311.924C326.337 312.42 325.665 312.812 324.849 313.1C324.033 313.372 323.201 313.508 322.353 313.508ZM322.041 302.852C320.937 302.852 320.065 303.196 319.425 303.884C318.785 304.572 318.409 305.476 318.297 306.596H325.377C325.329 305.412 325.017 304.492 324.441 303.836C323.881 303.18 323.081 302.852 322.041 302.852ZM329.871 313.292V301.628H331.767V303.716C332.391 302.308 333.671 301.532 335.607 301.388L336.303 301.316L336.447 302.996L335.223 303.14C334.119 303.236 333.279 303.588 332.703 304.196C332.127 304.788 331.839 305.604 331.839 306.644V313.292H329.871ZM344.901 313.292V296.372H346.869V303.86H357.021V296.372H358.989V313.292H357.021V305.564H346.869V313.292H344.901ZM367.742 313.508C366.606 313.508 365.622 313.26 364.79 312.764C363.958 312.268 363.31 311.572 362.846 310.676C362.398 309.764 362.174 308.692 362.174 307.46C362.174 306.228 362.398 305.164 362.846 304.268C363.31 303.356 363.958 302.652 364.79 302.156C365.622 301.66 366.606 301.412 367.742 301.412C368.862 301.412 369.838 301.66 370.67 302.156C371.518 302.652 372.166 303.356 372.614 304.268C373.078 305.164 373.31 306.228 373.31 307.46C373.31 308.692 373.078 309.764 372.614 310.676C372.166 311.572 371.518 312.268 370.67 312.764C369.838 313.26 368.862 313.508 367.742 313.508ZM367.742 311.948C368.83 311.948 369.702 311.564 370.358 310.796C371.014 310.012 371.342 308.9 371.342 307.46C371.342 306.004 371.014 304.892 370.358 304.124C369.702 303.356 368.83 302.972 367.742 302.972C366.638 302.972 365.758 303.356 365.102 304.124C364.462 304.892 364.142 306.004 364.142 307.46C364.142 308.9 364.462 310.012 365.102 310.796C365.758 311.564 366.638 311.948 367.742 311.948ZM379.162 313.292L374.818 301.628H376.858L380.146 311.012L383.554 301.628H385.21L388.57 311.036L391.906 301.628H393.85L389.482 313.292H387.634L384.346 304.244L381.034 313.292H379.162ZM399.684 313.508C398.884 313.508 398.164 313.356 397.524 313.052C396.9 312.732 396.404 312.3 396.036 311.756C395.668 311.212 395.484 310.604 395.484 309.932C395.484 309.084 395.7 308.412 396.132 307.916C396.58 307.42 397.308 307.068 398.316 306.86C399.34 306.636 400.732 306.524 402.492 306.524H403.26V305.78C403.26 304.788 403.052 304.076 402.636 303.644C402.236 303.196 401.588 302.972 400.692 302.972C399.988 302.972 399.308 303.076 398.652 303.284C397.996 303.476 397.324 303.796 396.636 304.244L395.964 302.828C396.572 302.396 397.308 302.052 398.172 301.796C399.052 301.54 399.892 301.412 400.692 301.412C402.196 301.412 403.308 301.78 404.028 302.516C404.764 303.252 405.132 304.396 405.132 305.948V313.292H403.308V311.276C403.004 311.964 402.532 312.508 401.892 312.908C401.268 313.308 400.532 313.508 399.684 313.508ZM399.996 312.044C400.956 312.044 401.74 311.716 402.348 311.06C402.956 310.388 403.26 309.54 403.26 308.516V307.796H402.516C401.22 307.796 400.196 307.86 399.444 307.988C398.708 308.1 398.188 308.308 397.884 308.612C397.596 308.9 397.452 309.3 397.452 309.812C397.452 310.468 397.676 311.004 398.124 311.42C398.588 311.836 399.212 312.044 399.996 312.044ZM408.738 313.292V301.628H410.634V303.716C411.258 302.308 412.538 301.532 414.474 301.388L415.17 301.316L415.314 302.996L414.09 303.14C412.986 303.236 412.146 303.588 411.57 304.196C410.994 304.788 410.706 305.604 410.706 306.644V313.292H408.738ZM421.639 313.508C420.599 313.508 419.687 313.26 418.903 312.764C418.135 312.268 417.535 311.572 417.103 310.676C416.687 309.764 416.479 308.692 416.479 307.46C416.479 306.212 416.687 305.14 417.103 304.244C417.535 303.332 418.135 302.636 418.903 302.156C419.687 301.66 420.599 301.412 421.639 301.412C422.551 301.412 423.351 301.612 424.039 302.012C424.743 302.412 425.263 302.964 425.599 303.668V296.372H427.543V313.292H425.647V311.156C425.311 311.892 424.791 312.468 424.087 312.884C423.383 313.3 422.567 313.508 421.639 313.508ZM422.047 311.948C423.135 311.948 424.007 311.564 424.663 310.796C425.319 310.012 425.647 308.9 425.647 307.46C425.647 306.004 425.319 304.892 424.663 304.124C424.007 303.356 423.135 302.972 422.047 302.972C420.943 302.972 420.063 303.356 419.407 304.124C418.767 304.892 418.447 306.004 418.447 307.46C418.447 308.9 418.767 310.012 419.407 310.796C420.063 311.564 420.943 311.948 422.047 311.948Z" fill="white"/>
</g>
<path d="M39.968 358V341.08H50.912V343.096H42.368V348.4H50.408V350.416H42.368V355.984H50.912V358H39.968ZM52.2768 358L57.1488 351.952L52.5888 346.288H55.4208L58.5648 350.296L61.7088 346.288H64.5408L59.9568 351.976L64.8528 358H61.9728L58.5408 353.68L55.1328 358H52.2768ZM66.6571 362.32V346.288H69.0331V348.28C69.3691 347.608 69.8811 347.072 70.5691 346.672C71.2571 346.272 72.0491 346.072 72.9451 346.072C73.9851 346.072 74.8891 346.32 75.6571 346.816C76.4411 347.312 77.0411 348.016 77.4571 348.928C77.8891 349.824 78.1051 350.896 78.1051 352.144C78.1051 353.392 77.8891 354.472 77.4571 355.384C77.0411 356.296 76.4411 357 75.6571 357.496C74.8891 357.976 73.9851 358.216 72.9451 358.216C72.0811 358.216 71.3051 358.032 70.6171 357.664C69.9451 357.28 69.4331 356.76 69.0811 356.104V362.32H66.6571ZM72.3451 356.344C73.3531 356.344 74.1531 355.984 74.7451 355.264C75.3531 354.544 75.6571 353.504 75.6571 352.144C75.6571 350.784 75.3531 349.752 74.7451 349.048C74.1531 348.328 73.3531 347.968 72.3451 347.968C71.3371 347.968 70.5291 348.328 69.9211 349.048C69.3291 349.752 69.0331 350.784 69.0331 352.144C69.0331 353.504 69.3291 354.544 69.9211 355.264C70.5291 355.984 71.3371 356.344 72.3451 356.344ZM80.6208 343.576V341.056H83.4528V343.576H80.6208ZM80.8368 358V346.288H83.2608V358H80.8368ZM86.6728 358V346.288H89.0248V348.376C89.6328 346.984 90.8968 346.208 92.8168 346.048L93.6088 346L93.7768 348.064L92.3128 348.208C90.1848 348.416 89.1208 349.512 89.1208 351.496V358H86.6728ZM97.5524 362.32L99.6404 357.688L94.7444 346.288H97.3364L100.936 355.192L104.584 346.288H107.08L100.096 362.32H97.5524ZM115.39 358V341.08H121.366C124.15 341.08 126.294 341.808 127.798 343.264C129.318 344.72 130.078 346.808 130.078 349.528C130.078 352.248 129.318 354.344 127.798 355.816C126.294 357.272 124.15 358 121.366 358H115.39ZM117.886 355.912H121.222C125.398 355.912 127.486 353.784 127.486 349.528C127.486 345.288 125.398 343.168 121.222 343.168H117.886V355.912ZM136.893 358.216C136.077 358.216 135.349 358.056 134.709 357.736C134.069 357.416 133.557 356.984 133.173 356.44C132.805 355.896 132.621 355.28 132.621 354.592C132.621 353.728 132.837 353.048 133.269 352.552C133.717 352.056 134.445 351.696 135.453 351.472C136.477 351.248 137.853 351.136 139.581 351.136H140.397V350.512C140.397 349.6 140.205 348.944 139.821 348.544C139.437 348.144 138.805 347.944 137.925 347.944C137.253 347.944 136.581 348.048 135.909 348.256C135.237 348.448 134.549 348.76 133.845 349.192L133.101 347.488C133.709 347.056 134.469 346.712 135.381 346.456C136.293 346.2 137.165 346.072 137.997 346.072C139.597 346.072 140.781 346.456 141.549 347.224C142.317 347.976 142.701 349.16 142.701 350.776V358H140.421V356.056C140.133 356.728 139.685 357.256 139.077 357.64C138.469 358.024 137.741 358.216 136.893 358.216ZM137.373 356.488C138.237 356.488 138.957 356.184 139.533 355.576C140.109 354.968 140.397 354.2 140.397 353.272V352.624H139.605C138.437 352.624 137.517 352.68 136.845 352.792C136.189 352.904 135.717 353.096 135.429 353.368C135.157 353.624 135.021 353.984 135.021 354.448C135.021 355.056 135.229 355.552 135.645 355.936C136.061 356.304 136.637 356.488 137.373 356.488ZM151.032 358.216C149.56 358.216 148.464 357.84 147.744 357.088C147.024 356.336 146.664 355.248 146.664 353.824V348.16H144.384V346.288H146.664V342.76H149.088V346.288H152.712V348.16H149.088V353.632C149.088 354.48 149.264 355.12 149.616 355.552C149.984 355.984 150.576 356.2 151.392 356.2C151.648 356.2 151.896 356.176 152.136 356.128C152.376 356.064 152.616 355.992 152.856 355.912L153.24 357.736C153 357.88 152.664 357.992 152.232 358.072C151.816 358.168 151.416 358.216 151.032 358.216ZM160.184 358.216C158.264 358.216 156.752 357.68 155.648 356.608C154.544 355.52 153.992 354.04 153.992 352.168C153.992 350.968 154.232 349.912 154.712 349C155.208 348.072 155.888 347.352 156.752 346.84C157.616 346.328 158.608 346.072 159.728 346.072C161.344 346.072 162.616 346.592 163.544 347.632C164.472 348.656 164.936 350.072 164.936 351.88V352.696H156.344C156.52 355.128 157.808 356.344 160.208 356.344C160.88 356.344 161.536 356.24 162.176 356.032C162.832 355.824 163.448 355.48 164.024 355L164.744 356.68C164.216 357.16 163.536 357.536 162.704 357.808C161.872 358.08 161.032 358.216 160.184 358.216ZM159.824 347.776C158.816 347.776 158.016 348.088 157.424 348.712C156.832 349.336 156.472 350.168 156.344 351.208H162.896C162.848 350.12 162.56 349.28 162.032 348.688C161.504 348.08 160.768 347.776 159.824 347.776Z" fill="white"/>
<path d="M275.2 360.216C273.232 360.216 271.728 359.472 270.688 357.984C269.664 356.48 269.152 354.328 269.152 351.528C269.152 348.68 269.664 346.528 270.688 345.072C271.728 343.6 273.232 342.864 275.2 342.864C277.184 342.864 278.688 343.6 279.712 345.072C280.736 346.528 281.248 348.672 281.248 351.504C281.248 354.32 280.728 356.48 279.688 357.984C278.664 359.472 277.168 360.216 275.2 360.216ZM275.2 358.152C276.416 358.152 277.32 357.616 277.912 356.544C278.504 355.472 278.8 353.792 278.8 351.504C278.8 349.216 278.504 347.552 277.912 346.512C277.336 345.456 276.432 344.928 275.2 344.928C273.984 344.928 273.08 345.456 272.488 346.512C271.896 347.568 271.6 349.232 271.6 351.504C271.6 353.792 271.896 355.472 272.488 356.544C273.08 357.616 273.984 358.152 275.2 358.152ZM284.431 360V358.152L290.071 352.104C290.855 351.256 291.415 350.488 291.751 349.8C292.103 349.112 292.279 348.416 292.279 347.712C292.279 345.888 291.207 344.976 289.063 344.976C287.431 344.976 285.967 345.592 284.671 346.824L283.783 344.928C284.423 344.304 285.239 343.808 286.231 343.44C287.223 343.056 288.255 342.864 289.327 342.864C291.071 342.864 292.407 343.264 293.335 344.064C294.279 344.864 294.751 346.008 294.751 347.496C294.751 348.504 294.503 349.488 294.007 350.448C293.527 351.408 292.767 352.432 291.727 353.52L287.551 357.912H295.423V360H284.431ZM298.173 361.584L296.325 361.032L302.493 341.88L304.365 342.432L298.173 361.584ZM310.842 360.216C309.706 360.216 308.626 360.048 307.602 359.712C306.578 359.36 305.722 358.872 305.034 358.248L305.898 356.328C306.65 356.936 307.426 357.384 308.226 357.672C309.026 357.96 309.874 358.104 310.77 358.104C311.922 358.104 312.794 357.856 313.386 357.36C313.994 356.864 314.298 356.152 314.298 355.224C314.298 354.296 313.994 353.608 313.386 353.16C312.794 352.712 311.93 352.488 310.794 352.488H308.178V350.4H310.554C311.562 350.4 312.354 350.144 312.93 349.632C313.522 349.12 313.818 348.416 313.818 347.52C313.818 346.704 313.546 346.08 313.002 345.648C312.458 345.2 311.682 344.976 310.674 344.976C308.962 344.976 307.466 345.592 306.186 346.824L305.322 344.928C305.978 344.272 306.794 343.768 307.77 343.416C308.762 343.048 309.794 342.864 310.866 342.864C312.562 342.864 313.882 343.256 314.826 344.04C315.77 344.808 316.242 345.88 316.242 347.256C316.242 348.184 316.002 349 315.522 349.704C315.058 350.408 314.41 350.92 313.578 351.24C314.586 351.496 315.362 351.992 315.906 352.728C316.45 353.448 316.722 354.336 316.722 355.392C316.722 356.88 316.194 358.056 315.138 358.92C314.098 359.784 312.666 360.216 310.842 360.216ZM325.497 360.216C323.529 360.216 322.025 359.472 320.985 357.984C319.961 356.48 319.449 354.328 319.449 351.528C319.449 348.68 319.961 346.528 320.985 345.072C322.025 343.6 323.529 342.864 325.497 342.864C327.481 342.864 328.985 343.6 330.009 345.072C331.033 346.528 331.545 348.672 331.545 351.504C331.545 354.32 331.025 356.48 329.985 357.984C328.961 359.472 327.465 360.216 325.497 360.216ZM325.497 358.152C326.713 358.152 327.617 357.616 328.209 356.544C328.801 355.472 329.097 353.792 329.097 351.504C329.097 349.216 328.801 347.552 328.209 346.512C327.633 345.456 326.729 344.928 325.497 344.928C324.281 344.928 323.377 345.456 322.785 346.512C322.193 347.568 321.897 349.232 321.897 351.504C321.897 353.792 322.193 355.472 322.785 356.544C323.377 357.616 324.281 358.152 325.497 358.152Z" fill="white"/>
<g filter="url(#filter2_d_180_101)">
<mask id="path-7-outside-1_180_101" maskUnits="userSpaceOnUse" x="433" y="50.2461" width="119" height="38" fill="black">
<rect fill="white" x="433" y="50.2461" width="119" height="38"/>
<path d="M450.544 86.2461L435.472 52.4061H442.048L453.232 78.3741L464.416 52.4061H470.752L455.68 86.2461H450.544ZM473.915 86.2461V52.4061H480.059V86.2461H473.915ZM499.079 86.7261C496.423 86.7261 493.959 86.3901 491.687 85.7181C489.415 85.0141 487.495 84.0701 485.927 82.8861L487.799 78.0381C489.367 79.1581 491.079 80.0221 492.935 80.6301C494.823 81.2381 496.871 81.5421 499.079 81.5421C501.607 81.5421 503.447 81.1261 504.599 80.2941C505.751 79.4301 506.327 78.3261 506.327 76.9821C506.327 75.8621 505.911 74.9821 505.079 74.3421C504.279 73.7021 502.887 73.1741 500.903 72.7581L495.623 71.6541C489.607 70.3741 486.599 67.2861 486.599 62.3901C486.599 60.2781 487.159 58.4381 488.279 56.8701C489.399 55.3021 490.951 54.0861 492.935 53.2221C494.919 52.3581 497.207 51.9261 499.799 51.9261C502.103 51.9261 504.263 52.2781 506.279 52.9821C508.295 53.6541 509.975 54.6141 511.319 55.8621L509.447 60.4701C506.791 58.2301 503.559 57.1101 499.751 57.1101C497.543 57.1101 495.815 57.5741 494.567 58.5021C493.319 59.4301 492.695 60.6461 492.695 62.1501C492.695 63.3021 493.079 64.2301 493.847 64.9341C494.615 65.6061 495.927 66.1341 497.783 66.5181L503.015 67.6221C506.183 68.2941 508.535 69.3501 510.071 70.7901C511.639 72.2301 512.423 74.1501 512.423 76.5501C512.423 78.5661 511.879 80.3421 510.791 81.8781C509.703 83.4141 508.151 84.6141 506.135 85.4781C504.151 86.3101 501.799 86.7261 499.079 86.7261ZM513.814 86.2461L529.126 52.4061H534.166L549.478 86.2461H543.238L539.878 78.4221H523.366L520.054 86.2461H513.814ZM531.574 59.0781L525.478 73.5261H537.766L531.67 59.0781H531.574Z"/>
</mask>
<path d="M450.544 86.2461L435.472 52.4061H442.048L453.232 78.3741L464.416 52.4061H470.752L455.68 86.2461H450.544ZM473.915 86.2461V52.4061H480.059V86.2461H473.915ZM499.079 86.7261C496.423 86.7261 493.959 86.3901 491.687 85.7181C489.415 85.0141 487.495 84.0701 485.927 82.8861L487.799 78.0381C489.367 79.1581 491.079 80.0221 492.935 80.6301C494.823 81.2381 496.871 81.5421 499.079 81.5421C501.607 81.5421 503.447 81.1261 504.599 80.2941C505.751 79.4301 506.327 78.3261 506.327 76.9821C506.327 75.8621 505.911 74.9821 505.079 74.3421C504.279 73.7021 502.887 73.1741 500.903 72.7581L495.623 71.6541C489.607 70.3741 486.599 67.2861 486.599 62.3901C486.599 60.2781 487.159 58.4381 488.279 56.8701C489.399 55.3021 490.951 54.0861 492.935 53.2221C494.919 52.3581 497.207 51.9261 499.799 51.9261C502.103 51.9261 504.263 52.2781 506.279 52.9821C508.295 53.6541 509.975 54.6141 511.319 55.8621L509.447 60.4701C506.791 58.2301 503.559 57.1101 499.751 57.1101C497.543 57.1101 495.815 57.5741 494.567 58.5021C493.319 59.4301 492.695 60.6461 492.695 62.1501C492.695 63.3021 493.079 64.2301 493.847 64.9341C494.615 65.6061 495.927 66.1341 497.783 66.5181L503.015 67.6221C506.183 68.2941 508.535 69.3501 510.071 70.7901C511.639 72.2301 512.423 74.1501 512.423 76.5501C512.423 78.5661 511.879 80.3421 510.791 81.8781C509.703 83.4141 508.151 84.6141 506.135 85.4781C504.151 86.3101 501.799 86.7261 499.079 86.7261ZM513.814 86.2461L529.126 52.4061H534.166L549.478 86.2461H543.238L539.878 78.4221H523.366L520.054 86.2461H513.814ZM531.574 59.0781L525.478 73.5261H537.766L531.67 59.0781H531.574Z" fill="white"/>
<path d="M450.544 86.2461L449.631 86.653L449.895 87.2461H450.544V86.2461ZM435.472 52.4061V51.4061H433.932L434.559 52.813L435.472 52.4061ZM442.048 52.4061L442.966 52.0105L442.706 51.4061H442.048V52.4061ZM453.232 78.3741L452.314 78.7696L453.232 80.9022L454.15 78.7696L453.232 78.3741ZM464.416 52.4061V51.4061H463.758L463.498 52.0105L464.416 52.4061ZM470.752 52.4061L471.665 52.813L472.292 51.4061H470.752V52.4061ZM455.68 86.2461V87.2461H456.329L456.593 86.653L455.68 86.2461ZM451.457 85.8392L436.385 51.9992L434.559 52.813L449.631 86.653L451.457 85.8392ZM435.472 53.4061H442.048V51.4061H435.472V53.4061ZM441.13 52.8016L452.314 78.7696L454.15 77.9785L442.966 52.0105L441.13 52.8016ZM454.15 78.7696L465.334 52.8016L463.498 52.0105L452.314 77.9785L454.15 78.7696ZM464.416 53.4061H470.752V51.4061H464.416V53.4061ZM469.839 51.9992L454.767 85.8392L456.593 86.653L471.665 52.813L469.839 51.9992ZM455.68 85.2461H450.544V87.2461H455.68V85.2461ZM473.915 86.2461H472.915V87.2461H473.915V86.2461ZM473.915 52.4061V51.4061H472.915V52.4061H473.915ZM480.059 52.4061H481.059V51.4061H480.059V52.4061ZM480.059 86.2461V87.2461H481.059V86.2461H480.059ZM474.915 86.2461V52.4061H472.915V86.2461H474.915ZM473.915 53.4061H480.059V51.4061H473.915V53.4061ZM479.059 52.4061V86.2461H481.059V52.4061H479.059ZM480.059 85.2461H473.915V87.2461H480.059V85.2461ZM491.687 85.7181L491.391 86.6734L491.403 86.677L491.687 85.7181ZM485.927 82.8861L484.994 82.5259L484.722 83.2296L485.324 83.6841L485.927 82.8861ZM487.799 78.0381L488.38 77.2244L487.33 76.4747L486.866 77.6779L487.799 78.0381ZM492.935 80.6301L492.623 81.5804L492.628 81.582L492.935 80.6301ZM504.599 80.2941L505.184 81.1048L505.192 81.0995L505.199 81.0941L504.599 80.2941ZM505.079 74.3421L504.454 75.123L504.461 75.1289L504.469 75.1347L505.079 74.3421ZM500.903 72.7581L501.108 71.7794L501.107 71.7793L500.903 72.7581ZM495.623 71.6541L495.415 72.6322L495.418 72.6329L495.623 71.6541ZM488.279 56.8701L487.465 56.2889L488.279 56.8701ZM492.935 53.2221L492.535 52.3053L492.935 53.2221ZM506.279 52.9821L505.949 53.9262L505.956 53.9285L505.963 53.9308L506.279 52.9821ZM511.319 55.8621L512.245 56.2385L512.505 55.599L511.999 55.1293L511.319 55.8621ZM509.447 60.4701L508.802 61.2345L509.855 62.1224L510.373 60.8465L509.447 60.4701ZM494.567 58.5021L495.163 59.3046L494.567 58.5021ZM493.847 64.9341L493.171 65.6712L493.18 65.6791L493.188 65.6867L493.847 64.9341ZM497.783 66.5181L497.989 65.5396L497.985 65.5388L497.783 66.5181ZM503.015 67.6221L503.222 66.6439L503.221 66.6436L503.015 67.6221ZM510.071 70.7901L509.387 71.5197L509.394 71.5266L510.071 70.7901ZM510.791 81.8781L509.975 81.3001L510.791 81.8781ZM506.135 85.4781L506.521 86.4003L506.529 86.3972L506.135 85.4781ZM499.079 85.7261C496.507 85.7261 494.14 85.4009 491.97 84.7592L491.403 86.677C493.778 87.3793 496.338 87.7261 499.079 87.7261V85.7261ZM491.983 84.7629C489.799 84.0862 487.988 83.1894 486.529 82.0881L485.324 83.6841C487.002 84.9508 489.031 85.942 491.391 86.6733L491.983 84.7629ZM486.86 83.2463L488.732 78.3983L486.866 77.6779L484.994 82.5259L486.86 83.2463ZM487.218 78.8518C488.869 80.0316 490.672 80.9413 492.623 81.5804L493.246 79.6798C491.485 79.1029 489.864 78.2846 488.38 77.2244L487.218 78.8518ZM492.628 81.582C494.626 82.2252 496.778 82.5421 499.079 82.5421V80.5421C496.963 80.5421 495.02 80.2509 493.241 79.6782L492.628 81.582ZM499.079 82.5421C501.673 82.5421 503.774 82.1236 505.184 81.1048L504.013 79.4834C503.12 80.1286 501.541 80.5421 499.079 80.5421V82.5421ZM505.199 81.0941C506.582 80.0569 507.327 78.6661 507.327 76.9821H505.327C505.327 77.9861 504.92 78.8033 503.999 79.4941L505.199 81.0941ZM507.327 76.9821C507.327 75.5757 506.785 74.393 505.688 73.5495L504.469 75.1347C505.036 75.5712 505.327 76.1485 505.327 76.9821H507.327ZM505.703 73.5612C504.711 72.7674 503.123 72.202 501.108 71.7794L500.698 73.7368C502.65 74.1462 503.846 74.6368 504.454 75.123L505.703 73.5612ZM501.107 71.7793L495.827 70.6753L495.418 72.6329L500.698 73.7369L501.107 71.7793ZM495.831 70.676C492.937 70.0603 490.89 69.0342 489.571 67.6803C488.274 66.3488 487.599 64.6158 487.599 62.3901H485.599C485.599 65.0604 486.427 67.3194 488.138 69.0759C489.828 70.81 492.292 71.9678 495.415 72.6322L495.831 70.676ZM487.599 62.3901C487.599 60.4655 488.105 58.8334 489.092 57.4513L487.465 56.2889C486.212 58.0428 485.599 60.0907 485.599 62.3901H487.599ZM489.092 57.4513C490.095 56.0482 491.495 54.9398 493.334 54.1389L492.535 52.3053C490.406 53.2324 488.703 54.556 487.465 56.2889L489.092 57.4513ZM493.334 54.1389C495.17 53.3395 497.317 52.9261 499.799 52.9261V50.9261C497.096 50.9261 494.668 51.3767 492.535 52.3053L493.334 54.1389ZM499.799 52.9261C501.999 52.9261 504.047 53.262 505.949 53.9262L506.608 52.038C504.478 51.2942 502.206 50.9261 499.799 50.9261V52.9261ZM505.963 53.9308C507.864 54.5648 509.414 55.4583 510.638 56.5949L511.999 55.1293C510.535 53.7699 508.725 52.7434 506.595 52.0334L505.963 53.9308ZM510.392 55.4857L508.52 60.0937L510.373 60.8465L512.245 56.2385L510.392 55.4857ZM510.091 59.7057C507.237 57.2986 503.77 56.1101 499.751 56.1101V58.1101C503.347 58.1101 506.344 59.1616 508.802 61.2345L510.091 59.7057ZM499.751 56.1101C497.415 56.1101 495.45 56.5995 493.97 57.6996L495.163 59.3046C496.18 58.5487 497.67 58.1101 499.751 58.1101V56.1101ZM493.97 57.6996C492.478 58.8088 491.695 60.3174 491.695 62.1501H493.695C493.695 60.9747 494.159 60.0514 495.163 59.3046L493.97 57.6996ZM491.695 62.1501C491.695 63.5494 492.173 64.7566 493.171 65.6712L494.522 64.1969C493.984 63.7035 493.695 63.0548 493.695 62.1501H491.695ZM493.188 65.6867C494.156 66.5331 495.677 67.1037 497.58 67.4974L497.985 65.5388C496.176 65.1645 495.074 64.6791 494.505 64.1815L493.188 65.6867ZM497.576 67.4965L502.808 68.6005L503.221 66.6436L497.989 65.5396L497.576 67.4965ZM502.807 68.6003C505.885 69.2532 508.037 70.2544 509.387 71.5196L510.755 70.0606C509.032 68.4458 506.48 67.335 503.222 66.6439L502.807 68.6003ZM509.394 71.5266C510.729 72.7521 511.423 74.3906 511.423 76.5501H513.423C513.423 73.9095 512.549 71.7081 510.747 70.0536L509.394 71.5266ZM511.423 76.5501C511.423 78.3746 510.934 79.9453 509.975 81.3001L511.607 82.4561C512.823 80.7389 513.423 78.7576 513.423 76.5501H511.423ZM509.975 81.3001C509.01 82.6622 507.616 83.7554 505.741 84.5589L506.529 86.3972C508.686 85.4728 510.396 84.1659 511.607 82.4561L509.975 81.3001ZM505.748 84.5559C503.914 85.3249 501.7 85.7261 499.079 85.7261V87.7261C501.898 87.7261 504.387 87.2953 506.521 86.4003L505.748 84.5559ZM513.814 86.2461L512.903 85.8339L512.264 87.2461H513.814V86.2461ZM529.126 52.4061V51.4061H528.48L528.215 51.9938L529.126 52.4061ZM534.166 52.4061L535.077 51.9938L534.811 51.4061H534.166V52.4061ZM549.478 86.2461V87.2461H551.028L550.389 85.8339L549.478 86.2461ZM543.238 86.2461L542.319 86.6407L542.579 87.2461H543.238V86.2461ZM539.878 78.4221L540.796 78.0275L540.536 77.4221H539.878V78.4221ZM523.366 78.4221V77.4221H522.703L522.445 78.0323L523.366 78.4221ZM520.054 86.2461V87.2461H520.716L520.975 86.6359L520.054 86.2461ZM531.574 59.0781V58.0781H530.91L530.652 58.6894L531.574 59.0781ZM525.478 73.5261L524.556 73.1374L523.97 74.5261H525.478V73.5261ZM537.766 73.5261V74.5261H539.273L538.687 73.1374L537.766 73.5261ZM531.67 59.0781L532.591 58.6894L532.333 58.0781H531.67V59.0781ZM514.725 86.6583L530.037 52.8183L528.215 51.9938L512.903 85.8339L514.725 86.6583ZM529.126 53.4061H534.166V51.4061H529.126V53.4061ZM533.255 52.8183L548.567 86.6583L550.389 85.8339L535.077 51.9938L533.255 52.8183ZM549.478 85.2461H543.238V87.2461H549.478V85.2461ZM544.156 85.8515L540.796 78.0275L538.959 78.8167L542.319 86.6407L544.156 85.8515ZM539.878 77.4221H523.366V79.4221H539.878V77.4221ZM522.445 78.0323L519.133 85.8563L520.975 86.6359L524.287 78.8119L522.445 78.0323ZM520.054 85.2461H513.814V87.2461H520.054V85.2461ZM530.652 58.6894L524.556 73.1374L526.399 73.9148L532.495 59.4668L530.652 58.6894ZM525.478 74.5261H537.766V72.5261H525.478V74.5261ZM538.687 73.1374L532.591 58.6894L530.748 59.4668L536.844 73.9148L538.687 73.1374ZM531.67 58.0781H531.574V60.0781H531.67V58.0781Z" fill="white" mask="url(#path-7-outside-1_180_101)"/>
</g>
<path d="M593.5 0C593.5 154.5 507.071 250 369 250C230.929 250 119 138.071 119 0C593.5 0 109.5 5.24521e-05 351.5 2.6226e-05C593.5 0 119 0 593.5 0Z" fill="white" fill-opacity="0.3"/>
<path d="M573.5 0C584.546 0 593.5 8.94394 593.5 19.9896C593.5 83.4177 593.5 250 593.5 250C562 250 593.5 250 575.5 250C542.67 250 510.161 243.534 479.829 230.97C449.498 218.406 421.938 199.991 398.723 176.777C375.509 153.562 357.094 126.002 344.53 95.6709C331.966 65.3395 325 32.8305 325 0H573.5Z" fill="white" fill-opacity="0.3"/>
<defs>
<filter id="filter0_d_180_101" x="32.512" y="216.859" width="380.122" height="34.1006" filterUnits="userSpaceOnUse" color-interpolation-filters="sRGB">
<feFlood flood-opacity="0" result="BackgroundImageFix"/>
<feColorMatrix in="SourceAlpha" type="matrix" values="0 0 0 0 0 0 0 0 0 0 0 0 0 0 0 0 0 0 127 0" result="hardAlpha"/>
<feOffset dy="4"/>
<feGaussianBlur stdDeviation="2"/>
<feComposite in2="hardAlpha" operator="out"/>
<feColorMatrix type="matrix" values="0 0 0 0 0 0 0 0 0 0 0 0 0 0 0 0 0 0 0.25 0"/>
<feBlend mode="normal" in2="BackgroundImageFix" result="effect1_dropShadow_180_101"/>
<feBlend mode="normal" in="SourceGraphic" in2="effect1_dropShadow_180_101" result="shape"/>
</filter>
<filter id="filter1_d_180_101" x="266.088" y="296.372" width="165.455" height="25.1357" filterUnits="userSpaceOnUse" color-interpolation-filters="sRGB">
<feFlood flood-opacity="0" result="BackgroundImageFix"/>
<feColorMatrix in="SourceAlpha" type="matrix" values="0 0 0 0 0 0 0 0 0 0 0 0 0 0 0 0 0 0 127 0" result="hardAlpha"/>
<feOffset dy="4"/>
<feGaussianBlur stdDeviation="2"/>
<feComposite in2="hardAlpha" operator="out"/>
<feColorMatrix type="matrix" values="0 0 0 0 0 0 0 0 0 0 0 0 0 0 0 0 0 0 0.25 0"/>
<feBlend mode="normal" in2="BackgroundImageFix" result="effect1_dropShadow_180_101"/>
<feBlend mode="normal" in="SourceGraphic" in2="effect1_dropShadow_180_101" result="shape"/>
</filter>
<filter id="filter2_d_180_101" x="431.472" y="51.9258" width="122.006" height="42.8008" filterUnits="userSpaceOnUse" color-interpolation-filters="sRGB">
<feFlood flood-opacity="0" result="BackgroundImageFix"/>
<feColorMatrix in="SourceAlpha" type="matrix" values="0 0 0 0 0 0 0 0 0 0 0 0 0 0 0 0 0 0 127 0" result="hardAlpha"/>
<feOffset dy="4"/>
<feGaussianBlur stdDeviation="2"/>
<feComposite in2="hardAlpha" operator="out"/>
<feColorMatrix type="matrix" values="0 0 0 0 0 0 0 0 0 0 0 0 0 0 0 0 0 0 0.25 0"/>
<feBlend mode="normal" in2="BackgroundImageFix" result="effect1_dropShadow_180_101"/>
<feBlend mode="normal" in="SourceGraphic" in2="effect1_dropShadow_180_101" result="shape"/>
</filter>
</defs>
</svg>
