<svg width="32" height="32" viewBox="0 0 32 32" fill="none" xmlns="http://www.w3.org/2000/svg">
<g clip-path="url(#clip0_122_1607)">
<path d="M22.122 4.22977L27.2533 4.22977C27.5936 4.22977 27.9199 4.36464 28.1605 4.60472C28.401 4.8448 28.5362 5.17041 28.5362 5.50993V25.9926C28.5362 26.3321 28.401 26.6577 28.1605 26.8978C27.9199 27.1379 27.5936 27.2728 27.2533 27.2728H4.16223C3.822 27.2728 3.49571 27.1379 3.25513 26.8978C3.01455 26.6577 2.87939 26.3321 2.87939 25.9926L2.87939 5.50993C2.87939 5.17041 3.01455 4.8448 3.25513 4.60472C3.49571 4.36464 3.822 4.22977 4.16223 4.22977H9.29359V1.66943H11.8593V4.22977H19.5563V1.66943H22.122V4.22977ZM5.44507 11.9108L5.44507 24.7124H25.9705V11.9108H5.44507ZM8.01075 17.0314H14.425V22.1521H8.01075V17.0314Z" fill="white"/>
</g>
<defs>
<clipPath id="clip0_122_1607">
<rect width="30.7882" height="30.724" fill="white" transform="translate(0.313721 0.38916)"/>
</clipPath>
</defs>
</svg>
