
<svg width="32" height="32" viewBox="0 0 32 32" fill="none" xmlns="http://www.w3.org/2000/svg">
<g clip-path="url(#clip0_122_1611)">
<path d="M15.708 28.8973C8.62291 28.8973 2.87964 23.166 2.87964 16.0956C2.87964 10.363 6.65504 5.51119 11.8595 3.88026V6.59934C9.65422 7.49295 7.82858 9.12345 6.69488 11.2119C5.56118 13.3004 5.18988 15.7171 5.64448 18.0486C6.09909 20.3801 7.35135 22.4815 9.18706 23.9934C11.0228 25.5053 13.3279 26.3337 15.708 26.337C17.7526 26.3369 19.7506 25.7276 21.446 24.5873C23.1414 23.4469 24.4569 21.8273 25.2241 19.9361H27.9489C26.3146 25.1298 21.4526 28.8973 15.708 28.8973ZM28.4723 17.3758H14.4252V3.35795C14.8472 3.31571 15.2757 3.29395 15.708 3.29395C22.7932 3.29395 28.5364 9.02525 28.5364 16.0956C28.5364 16.527 28.5146 16.9546 28.4723 17.3758ZM16.9909 5.93365V14.8154H25.8912C25.6057 12.5593 24.5761 10.462 22.9648 8.85401C21.3534 7.24599 19.2517 6.2186 16.9909 5.93365Z" fill="white"/>
</g>
<defs>
<clipPath id="clip0_122_1611">
<rect width="30.7882" height="30.724" fill="white" transform="translate(0.313721 0.733398)"/>
</clipPath>
</defs>
</svg>
