<svg width="36" height="35" viewBox="0 0 36 35" fill="none" xmlns="http://www.w3.org/2000/svg">
<path d="M18.3459 34.6989L30.037 34.6993C30.6823 34.6993 31.2061 34.1939 31.2061 33.569L31.2063 26.8806C31.2074 26.8806 31.2543 26.1208 31.3034 25.8622C31.3595 25.5741 31.383 25.4552 31.5829 24.9579C32.0365 23.8786 33.2595 20.969 33.8477 19.9235C34.7958 18.2212 35.8831 15.9255 35.8831 13.2228C35.8834 6.36715 30.114 0.788877 23.0234 0.788648C15.9328 0.78842 10.1631 6.36651 10.1629 13.222C10.1629 13.9184 10.2236 14.6145 10.3416 15.2995L7.96929 19.459C7.76938 19.8094 7.77642 20.2356 7.98674 20.5793C8.19732 20.9229 8.57962 21.1344 8.99348 21.1344L10.1626 21.1344L10.1625 22.2648C10.1625 22.7835 10.5284 23.2347 11.0488 23.3614L14.591 24.2183C14.6938 24.2431 14.8389 24.424 14.8389 24.5257C14.8389 24.6273 14.6938 24.8082 14.5923 24.8319C14.5489 24.8433 14.5069 24.8557 14.466 24.8703L12.0928 25.7271C11.6343 25.8921 11.3315 26.3149 11.3315 26.7862L11.3314 29.0469C11.3314 29.6719 11.8541 30.1773 12.5005 30.1773L17.1769 30.1774L17.1768 33.5685C17.1768 34.1934 17.7005 34.6988 18.3459 34.6989L18.3459 34.6989Z" fill="#3E36B0"/>
<path d="M0.809949 21.1342C0.809929 21.7584 1.3334 22.2645 1.97901 22.2646C2.62463 22.2646 3.14813 21.7585 3.14816 21.1343C3.14818 20.51 2.62471 20.0039 1.97909 20.0039C1.33347 20.0038 0.80997 20.51 0.809949 21.1342Z" fill="#3E36B0"/>
<path d="M4.31776 22.2645C4.31774 22.8888 4.84121 23.3949 5.48683 23.3949C6.13245 23.3949 6.65595 22.8888 6.65597 22.2646C6.65599 21.6404 6.13252 21.1343 5.4869 21.1342C4.84128 21.1342 4.31778 21.6403 4.31776 22.2645Z" fill="#3E36B0"/>
<path d="M4.31679 26.786C4.31676 27.4102 4.84023 27.9164 5.48585 27.9164C6.13147 27.9164 6.65497 27.4103 6.65499 26.7861C6.65501 26.1619 6.13155 25.6557 5.48593 25.6557C4.84031 25.6557 4.31681 26.1618 4.31679 26.786Z" fill="#3E36B0"/>
<path d="M7.82362 24.5253C7.8236 25.1495 8.34707 25.6557 8.99269 25.6557C9.63831 25.6557 10.1618 25.1496 10.1618 24.5254C10.1618 23.9011 9.63838 23.395 8.99276 23.395C8.34714 23.395 7.82364 23.9011 7.82362 24.5253Z" fill="#3E36B0"/>
<path d="M0.809949 24.5253C0.809929 25.1495 1.3334 25.6557 1.97901 25.6557C2.62463 25.6557 3.14813 25.1496 3.14816 24.5254C3.14818 23.9011 2.62471 23.395 1.97909 23.395C1.33347 23.395 0.80997 23.9011 0.809949 24.5253Z" fill="#3E36B0"/>
<path d="M0.808973 27.9159C0.808952 28.5401 1.33242 29.0463 1.97804 29.0463C2.62366 29.0463 3.14716 28.5402 3.14718 27.916C3.1472 27.2918 2.62373 26.7856 1.97811 26.7856C1.33249 26.7856 0.808994 27.2917 0.808973 27.9159Z" fill="#3E36B0"/>
</svg>
