<svg width="36" height="35" viewBox="0 0 36 35" fill="none" xmlns="http://www.w3.org/2000/svg">
<path d="M11.6208 12.2391L11.6208 11.962C11.621 5.66377 16.9011 0.559614 23.416 0.559821C29.9314 0.560028 35.2106 5.66344 35.2104 11.964C35.2103 14.4599 34.6145 16.325 33.307 18.8534C33.2207 19.0206 32.7697 19.879 32.6497 20.1127C32.4184 20.5643 32.2478 20.9222 32.1068 21.2604C31.7788 22.0454 31.6205 22.7077 31.6204 23.3681C31.6204 24.7392 31.9735 26.1482 32.5656 27.5076C32.7745 27.9876 32.9983 28.4257 33.2208 28.8114C33.3514 29.0374 33.4495 29.1917 33.4991 29.2637C33.8707 29.8027 33.617 30.5358 32.9846 30.7498L22.7278 34.2201C22.1875 34.4031 21.5972 34.1227 21.416 33.5978L19.5986 28.3259L15.719 28.3258C13.4549 28.3257 11.6199 26.5519 11.62 24.3626L11.6201 20.8885L10.0847 20.8884C8.76798 20.8884 8.00159 19.7364 8.55989 18.5803L11.6208 12.2391ZM25.2657 9.98035C26.9651 9.9804 28.3429 8.64861 28.3429 7.00563C28.3429 5.91769 27.5305 4.73936 25.9716 3.31084C25.5759 2.94842 24.9561 2.9484 24.5606 3.3108C23.0016 4.73928 22.1891 5.9175 22.189 7.00543C22.189 8.64841 23.5664 9.98029 25.2657 9.98035ZM28.8553 16.9223C30.5546 16.9224 31.9322 15.5903 31.9322 13.9473C31.9323 12.8594 31.1201 11.6813 29.561 10.2528C29.1654 9.89014 28.5456 9.89012 28.1501 10.2528C26.5909 11.6812 25.7786 12.8592 25.7786 13.9471C25.7786 15.5901 27.156 16.9222 28.8553 16.9223ZM1.16297 8.84348L1.16314 3.53397C1.1632 1.89098 2.54099 0.559194 4.24031 0.559248C5.93963 0.559302 7.31709 1.89118 7.31703 3.53416L7.31686 8.84367C7.96993 9.55889 8.3426 10.4851 8.34257 11.4674C8.34249 13.6581 6.50568 15.4339 4.23982 15.4339C1.97396 15.4338 0.137266 13.6579 0.137337 11.4671C0.13737 10.4848 0.509813 9.55865 1.16297 8.84348ZM3.21423 9.24994C3.21422 9.53192 3.09016 9.80073 2.87269 9.98885C2.4397 10.3635 2.18867 10.8945 2.18865 11.4672C2.18861 12.5627 3.10684 13.4505 4.23986 13.4505C5.37264 13.4506 6.29117 12.5628 6.2912 11.4673C6.29122 10.8947 6.04021 10.3636 5.60726 9.98893C5.38981 9.80078 5.26552 9.53196 5.26552 9.25L5.26571 3.5341C5.26573 2.98659 4.8065 2.54254 4.2402 2.54252C3.67368 2.5425 3.21439 2.98651 3.21437 3.53403L3.21423 9.24994ZM24.5808 6.26424C24.7518 6.01637 24.9803 5.74074 25.2658 5.43973C25.5516 5.74078 25.78 6.01642 25.951 6.26429C26.1904 6.61142 26.2916 6.86613 26.2916 7.00556C26.2915 7.55331 25.8323 7.99733 25.2657 7.99732C24.6995 7.9973 24.2402 7.55326 24.2402 7.0055C24.2402 6.86603 24.3414 6.61133 24.5808 6.26424L24.5808 6.26424ZM28.1704 13.2056C28.3414 12.9577 28.5698 12.6821 28.8554 12.3811C29.141 12.6821 29.3696 12.9578 29.5404 13.2056C29.78 13.553 29.8811 13.8077 29.8811 13.9469C29.8811 14.4947 29.4219 14.9387 28.8553 14.9387C28.2888 14.9386 27.8298 14.4946 27.8298 13.9468C27.8298 13.8076 27.9308 13.5529 28.1704 13.2056L28.1704 13.2056Z" fill="#3E36B0"/>
</svg>
