<svg width="36" height="35" viewBox="0 0 36 35" fill="none" xmlns="http://www.w3.org/2000/svg">
<path d="M11.2201 17.7148L15.3844 17.7149C15.7498 17.715 16.1149 17.3617 16.115 17.0087L16.1151 12.488C16.1152 10.2984 17.9417 8.46184 20.1335 8.4619C20.4989 8.46191 20.8641 8.17935 20.8641 7.75563L20.8642 4.15291C20.8642 3.72917 20.4988 3.4466 20.1337 3.44659L19.4763 3.44657C14.5813 3.44642 10.4901 7.40207 10.4899 12.2757L10.4898 17.0083C10.4898 17.3615 10.8551 17.7148 11.2203 17.7148L11.2201 17.7148Z" fill="#3E36B0"/>
<path d="M11.0744 1.39792C11.0744 1.04464 10.7821 0.691614 10.3439 0.6916L6.47165 0.691479C6.25251 0.691472 6.03338 0.76217 5.88737 0.90333C5.81424 1.04474 5.74111 1.1859 5.7411 1.39776L5.7409 7.40172C4.71806 8.24938 4.13349 9.59131 4.13344 11.0041L4.13344 11.1453C5.37538 10.5098 6.98272 10.0151 8.8823 9.66211C9.10143 9.66212 9.32057 9.59142 9.46682 9.59143C9.83226 8.32 10.3437 7.18997 11.1474 6.20085L11.1473 1.39788L11.0744 1.39792Z" fill="#3E36B0"/>
<path d="M6.10915 31.1356L6.10923 28.9457C6.10923 28.7338 6.18237 28.522 6.40151 28.3806L7.93576 27.2503L7.0592 21.1049C6.98609 20.6812 7.27836 20.328 7.64375 20.328C8.00914 20.2573 8.44738 20.5399 8.44736 20.9636L9.39683 27.4621C9.46995 27.7447 9.32368 27.9565 9.10454 28.0977L7.57029 29.2991L7.57019 32.3365C9.39659 33.7491 11.369 34.5969 13.1226 34.597C13.488 34.597 13.7799 34.597 14.0722 34.5263C14.949 34.3852 15.6796 34.0319 16.4832 33.6082L15.0952 30.5001C15.0221 30.4294 15.0221 30.2882 15.0221 30.2175L15.0222 27.1095L12.6847 23.3658C12.4656 23.0125 12.6116 22.5888 12.9039 22.3769C13.2693 22.1651 13.7075 22.3062 13.9267 22.5888L16.3375 26.4032C16.4106 26.5444 16.4835 26.6151 16.4835 26.7565L16.4834 29.935L17.6524 32.6191C20.7208 29.8644 22.4014 24.6374 21.3788 19.6223C20.8675 16.8675 19.5525 14.6071 17.653 13.1237L17.6529 17.0088C17.6529 18.1391 16.63 19.1279 15.461 19.1279L11.2236 19.1275C10.0545 19.1275 9.03173 18.1385 9.03177 17.0082L9.03192 12.2757C9.03194 11.852 9.03195 11.428 9.10509 11.075L9.03222 11.075C2.31088 12.3462 -0.611546 15.8779 0.48413 21.5288C1.14166 24.9899 3.40626 28.5924 6.10938 31.1354L6.10915 31.1356Z" fill="#3E36B0"/>
<path d="M34.5979 21.8126L33.1369 21.8126L31.5298 15.8086C31.4567 15.4553 31.1644 15.2434 30.7993 15.2434C30.4339 15.2434 30.1419 15.526 30.1419 15.8085L28.6806 23.7903L27.8039 20.8237C27.7308 20.5411 27.5117 20.3292 27.2194 20.3292C26.9272 20.2585 26.6349 20.3999 26.4889 20.6825L24.9546 23.0839L23.5666 18.6339C23.4935 18.3513 23.2012 18.1394 22.9092 18.1394C22.7632 18.1394 22.617 18.1394 22.5438 18.2101C22.6898 18.6339 22.763 18.9871 22.8361 19.4109C22.982 20.3291 23.1283 21.2475 23.1282 22.1657L24.0778 25.0619C24.1509 25.3444 24.3701 25.5563 24.6623 25.5563C24.9546 25.627 25.2469 25.4856 25.3929 25.2031L26.854 22.8016L28.1688 27.1811C28.242 27.4637 28.5342 27.6756 28.8993 27.6756L28.9725 27.6756C29.3379 27.6756 29.6299 27.393 29.6299 27.1105L31.0183 19.3406L31.9679 22.7313C32.041 23.0139 32.3332 23.2964 32.6984 23.2964L34.5979 23.2963C35.0362 23.2963 35.3284 23.0137 35.3285 22.59C35.3285 22.0953 35.0362 21.8127 34.598 21.8127L34.5979 21.8126Z" fill="#3E36B0"/>
</svg>
