<svg width="32" height="31" viewBox="0 0 32 31" fill="none" xmlns="http://www.w3.org/2000/svg">
<g clip-path="url(#clip0_122_1623)">
<path d="M5.4452 23.1204H8.01088V25.6807H23.405V5.19803L8.01088 5.19803V7.75836H5.4452V3.91786C5.4452 3.57834 5.58036 3.25273 5.82093 3.01265C6.06151 2.77257 6.38781 2.6377 6.72804 2.6377L24.6878 2.6377C25.028 2.6377 25.3543 2.77257 25.5949 3.01265C25.8355 3.25273 25.9706 3.57834 25.9706 3.91786V26.9609C25.9706 27.3004 25.8355 27.626 25.5949 27.8661C25.3543 28.1062 25.028 28.241 24.6878 28.241H6.72804C6.38781 28.241 6.06151 28.1062 5.82093 27.8661C5.58036 27.626 5.4452 27.3004 5.4452 26.9609V23.1204ZM8.01088 14.1592H16.9908V16.7195H8.01088V20.56L1.59668 15.4394L8.01088 10.3187V14.1592Z" fill="white"/>
</g>
<defs>
<clipPath id="clip0_122_1623">
<rect width="30.7882" height="30.724" fill="white" transform="translate(0.313721 0.0771484)"/>
</clipPath>
</defs>
</svg>
