<svg width="32" height="32" viewBox="0 0 32 32" fill="none" xmlns="http://www.w3.org/2000/svg">
<g clip-path="url(#clip0_122_1615)">
<path d="M2.8794 12.0752C2.87872 11.0667 3.0774 10.0679 3.46407 9.13616C3.85074 8.20439 4.4178 7.35788 5.13277 6.64511C5.84774 5.93234 6.69658 5.36731 7.63069 4.98238C8.5648 4.59745 9.56582 4.40018 10.5764 4.40187L20.8392 4.40187C25.0892 4.40187 28.5362 7.85192 28.5362 12.0752V27.4449H10.5764C6.32639 27.4449 2.8794 23.9948 2.8794 19.7716V12.0752ZM25.9705 24.8845V12.0752C25.9671 10.7189 25.4252 9.41915 24.4634 8.46079C23.5016 7.50243 22.1983 6.96355 20.8392 6.9622H10.5764C9.90275 6.96052 9.23536 7.09156 8.61253 7.34782C7.98971 7.60408 7.4237 7.98051 6.94697 8.45553C6.47025 8.93055 6.09218 9.49481 5.83445 10.116C5.57672 10.7371 5.4444 11.4029 5.44508 12.0752V19.7716C5.44847 21.1279 5.99043 22.4276 6.95223 23.386C7.91403 24.3443 9.21726 24.8832 10.5764 24.8845H25.9705ZM18.2735 14.6432H20.8392V17.2035H18.2735V14.6432ZM10.5764 14.6432H13.1421V17.2035H10.5764V14.6432Z" fill="white"/>
</g>
<defs>
<clipPath id="clip0_122_1615">
<rect width="30.7882" height="30.724" fill="white" transform="translate(0.313721 0.561523)"/>
</clipPath>
</defs>
</svg>
