<svg width="28" height="25" viewBox="0 0 28 25" fill="none" xmlns="http://www.w3.org/2000/svg">
<path d="M26.6059 19.9474C27.3806 18.5827 27.7944 17.0541 27.8106 15.4975C27.8267 13.9409 27.4447 12.4046 26.6985 11.0252C25.9523 9.64582 24.8651 8.46612 23.5335 7.59106C22.2019 6.71599 20.6673 6.1727 19.0661 6.00949C18.5579 4.82587 17.8059 3.75462 16.8558 2.86095C15.9058 1.96728 14.7776 1.26989 13.5399 0.811217C12.3022 0.352545 10.9809 0.142192 9.65646 0.192962C8.332 0.243733 7.03208 0.554565 5.83583 1.10654C4.63958 1.65851 3.57202 2.44008 2.69813 3.40366C1.82425 4.36725 1.16232 5.4927 0.752631 6.7115C0.342946 7.93031 0.194079 9.21697 0.31509 10.4932C0.436101 11.7694 0.82446 13.0084 1.45653 14.1349L0.654953 16.8595C0.5827 17.108 0.580199 17.3706 0.647707 17.6203C0.715216 17.87 0.850297 18.0978 1.03906 18.2803C1.22782 18.4628 1.46346 18.5934 1.72173 18.6587C1.98001 18.724 2.2516 18.7215 2.50859 18.6517L5.32663 17.8767C6.46049 18.4816 7.70834 18.8604 8.99633 18.9907C9.51808 20.2216 10.3028 21.332 11.2992 22.2493C12.2956 23.1666 13.4812 23.87 14.7783 24.3136C16.0753 24.7571 17.4547 24.9308 18.826 24.8232C20.1973 24.7156 21.5297 24.3292 22.7358 23.6892L25.5538 24.4642C25.8113 24.5382 26.0846 24.5437 26.3449 24.4799C26.6053 24.4162 26.843 24.2856 27.0329 24.102C27.2228 23.9184 27.3578 23.6886 27.4238 23.4368C27.4897 23.1851 27.4841 22.9209 27.4075 22.672L26.6059 19.9474ZM5.42682 16.363C5.35414 16.3623 5.28195 16.3746 5.2139 16.3993L2.09528 17.2591L2.98453 14.2439C3.01579 14.1495 3.02526 14.0496 3.01228 13.9512C2.99929 13.8529 2.96417 13.7585 2.90938 13.6747C1.88449 12.0024 1.52614 10.026 1.9016 8.11637C2.27706 6.20676 3.36051 4.49529 4.94856 3.30326C6.53662 2.11123 8.52007 1.52059 10.5266 1.64223C12.5331 1.76387 14.4247 2.58942 15.8464 3.9639C17.268 5.33839 18.1218 7.16729 18.2476 9.1073C18.3734 11.0473 17.7626 12.965 16.5297 14.5004C15.2967 16.0358 13.5266 17.0833 11.5515 17.4464C9.57641 17.8094 7.53218 17.4629 5.80256 16.472C5.69089 16.4012 5.56035 16.3634 5.42682 16.363V16.363ZM25.0779 20.0564L25.9672 23.0716L22.8485 22.2118C22.7509 22.1816 22.6476 22.1725 22.5459 22.185C22.4442 22.1976 22.3465 22.2315 22.2599 22.2845C21.2853 22.8418 20.2028 23.1998 19.0793 23.3365C17.9559 23.4732 16.8154 23.3856 15.7283 23.0791C14.6413 22.7727 13.6309 22.2539 12.7594 21.5548C11.888 20.8558 11.1742 19.9914 10.6621 19.015C13.1354 18.8554 15.4538 17.7939 17.1487 16.0451C18.8436 14.2962 19.7885 11.9905 19.7925 9.59386C19.7897 8.90541 19.7099 8.21926 19.5546 7.54738C20.862 7.78481 22.091 8.32336 23.1375 9.11744C24.184 9.91151 25.0171 10.9377 25.5664 12.1092C26.1157 13.2806 26.3649 14.5628 26.293 15.8471C26.221 17.1314 25.83 18.38 25.1531 19.4872C25.0983 19.571 25.0631 19.6654 25.0502 19.7637C25.0372 19.8621 25.0466 19.962 25.0779 20.0564V20.0564Z" fill="#0D0D0D" fill-opacity="0.75"/>
</svg>
