<svg width="26" height="26" viewBox="0 0 26 26" fill="none" xmlns="http://www.w3.org/2000/svg">
<path d="M12.7999 23.4665C13.4605 23.4673 14.1049 23.2623 14.6436 22.88C15.1823 22.4977 15.5885 21.957 15.8057 21.3332H9.79404C10.0113 21.957 10.4175 22.4977 10.9562 22.88C11.4949 23.2623 12.1393 23.4673 12.7999 23.4665ZM20.2665 15.5583V10.6666C20.2665 7.23513 17.9359 4.34449 14.7785 3.47516C14.466 2.68796 13.7023 2.1333 12.7999 2.1333C11.8975 2.1333 11.1338 2.68796 10.8212 3.47516C7.66392 4.34555 5.33327 7.23513 5.33327 10.6666V15.5583L3.51248 17.3791C3.41324 17.478 3.33453 17.5955 3.2809 17.7249C3.22726 17.8543 3.19975 17.9931 3.19995 18.1332V19.1999C3.19995 19.4828 3.31233 19.7541 3.51237 19.9541C3.71241 20.1541 3.98372 20.2665 4.26661 20.2665H21.3332C21.6161 20.2665 21.8874 20.1541 22.0874 19.9541C22.2875 19.7541 22.3998 19.4828 22.3998 19.1999V18.1332C22.4 17.9931 22.3725 17.8543 22.3189 17.7249C22.2653 17.5955 22.1865 17.478 22.0873 17.3791L20.2665 15.5583Z" fill="#0D0D0D" fill-opacity="0.75"/>
<circle cx="18.8388" cy="5.20926" r="2.80496" fill="#F9A135"/>
</svg>
