<svg width="20" height="22" viewBox="0 0 20 22" fill="none" xmlns="http://www.w3.org/2000/svg">
<path d="M9.79965 21.4665C10.4602 21.4673 11.1047 21.2623 11.6434 20.88C12.1821 20.4977 12.5883 19.957 12.8055 19.3332H6.7938C7.01104 19.957 7.41724 20.4977 7.95594 20.88C8.49463 21.2623 9.13906 21.4673 9.79965 21.4665V21.4665ZM17.2663 13.5583V8.66658C17.2663 5.23513 14.9356 2.34449 11.7783 1.47516C11.4658 0.687964 10.702 0.133301 9.79965 0.133301C8.89725 0.133301 8.13352 0.687964 7.82099 1.47516C4.66368 2.34555 2.33303 5.23513 2.33303 8.66658V13.5583L0.512239 15.3791C0.412995 15.478 0.334288 15.5955 0.280651 15.7249C0.227014 15.8543 0.199505 15.9931 0.199708 16.1332L0.199708 17.1999C0.199708 17.4828 0.312088 17.7541 0.512126 17.9541C0.712163 18.1541 0.983472 18.2665 1.26637 18.2665H18.3329C18.6158 18.2665 18.8871 18.1541 19.0872 17.9541C19.2872 17.7541 19.3996 17.4828 19.3996 17.1999V16.1332C19.3998 15.9931 19.3723 15.8543 19.3186 15.7249C19.265 15.5955 19.1863 15.478 19.0871 15.3791L17.2663 13.5583Z" fill="#0D0D0D" fill-opacity="0.75"/>
</svg>
