
<svg width="27" height="28" viewBox="0 0 27 28" fill="none" xmlns="http://www.w3.org/2000/svg">
<path d="M1.8844 21.1189C1.30595 20.1207 0.856302 19.0535 0.546143 17.9427C1.22117 17.6001 1.78806 17.0778 2.18411 16.4337C2.58016 15.7895 2.78994 15.0486 2.79022 14.2929C2.7905 13.5371 2.58129 12.796 2.18572 12.1516C1.79015 11.5071 1.22365 10.9844 0.548879 10.6413C1.16743 8.40937 2.34517 6.3713 3.97115 4.71909C4.6062 5.1311 5.3431 5.35974 6.1003 5.3797C6.85749 5.39966 7.60546 5.21017 8.26142 4.8322C8.91738 4.45423 9.45576 3.90252 9.81697 3.23812C10.1782 2.57372 10.3481 1.82254 10.308 1.06772C12.555 0.488223 14.9129 0.489163 17.1594 1.07045C17.1197 1.82525 17.29 2.57632 17.6515 3.24053C18.013 3.90474 18.5515 4.4562 19.2076 4.83388C19.8637 5.21156 20.6117 5.40074 21.3689 5.38048C22.126 5.36022 22.8628 5.13132 23.4977 4.71909C24.29 5.52475 24.9933 6.441 25.5844 7.46377C26.1769 8.48654 26.6203 9.55301 26.9227 10.64C26.2477 10.9826 25.6808 11.5048 25.2847 12.149C24.8887 12.7931 24.6789 13.5341 24.6786 14.2898C24.6783 15.0455 24.8876 15.7866 25.2831 16.4311C25.6787 17.0755 26.2452 17.5982 26.92 17.9413C26.3014 20.1733 25.1237 22.2114 23.4977 23.8636C22.8626 23.4516 22.1257 23.2229 21.3685 23.203C20.6113 23.183 19.8634 23.3725 19.2074 23.7505C18.5515 24.1284 18.0131 24.6801 17.6519 25.3445C17.2907 26.0089 17.1207 26.7601 17.1608 27.5149C14.9138 28.0944 12.5559 28.0935 10.3094 27.5122C10.3492 26.7574 10.1789 26.0063 9.81737 25.3421C9.45588 24.6779 8.9173 24.1265 8.2612 23.7488C7.60511 23.3711 6.85711 23.1819 6.09995 23.2022C5.3428 23.2224 4.60602 23.4513 3.97115 23.8636C3.16244 23.0401 2.4613 22.1179 1.8844 21.1189ZM9.62933 21.3865C11.0875 22.2258 12.1839 23.5727 12.7081 25.169C13.391 25.2332 14.0765 25.2345 14.7593 25.1704C15.284 23.5739 16.3808 22.2269 17.8395 21.3879C19.2971 20.5463 21.0148 20.2716 22.663 20.6164C23.0598 20.0593 23.4019 19.4653 23.6865 18.8439C22.5637 17.5924 21.9434 15.9712 21.9446 14.2913C21.9446 12.5708 22.5877 10.9636 23.6865 9.73872C23.3999 9.11761 23.0563 8.52427 22.6602 7.96628C21.0131 8.31081 19.2965 8.03657 17.8395 7.19613C16.3813 6.35685 15.285 5.00992 14.7607 3.41366C14.0779 3.34949 13.3923 3.34812 12.7095 3.4123C12.1849 5.00878 11.088 6.35574 9.62933 7.19477C8.17173 8.03635 6.45402 8.3111 4.80585 7.96628C4.4098 8.5238 4.06712 9.11722 3.78232 9.73872C4.90516 10.9903 5.52545 12.6115 5.52425 14.2913C5.52425 16.0119 4.88111 17.6191 3.78232 18.8439C4.06895 19.4651 4.4125 20.0584 4.80859 20.6164C6.45571 20.2719 8.17231 20.5461 9.62933 21.3865ZM13.7344 18.3879C12.6457 18.3879 11.6015 17.9563 10.8317 17.188C10.0618 16.4198 9.62933 15.3778 9.62933 14.2913C9.62933 13.2049 10.0618 12.1629 10.8317 11.3946C11.6015 10.6264 12.6457 10.1948 13.7344 10.1948C14.8232 10.1948 15.8673 10.6264 16.6372 11.3946C17.407 12.1629 17.8395 13.2049 17.8395 14.2913C17.8395 15.3778 17.407 16.4198 16.6372 17.188C15.8673 17.9563 14.8232 18.3879 13.7344 18.3879ZM13.7344 15.6568C14.0973 15.6568 14.4454 15.513 14.702 15.2569C14.9586 15.0008 15.1028 14.6535 15.1028 14.2913C15.1028 13.9292 14.9586 13.5819 14.702 13.3258C14.4454 13.0697 14.0973 12.9258 13.7344 12.9258C13.3715 12.9258 13.0235 13.0697 12.7668 13.3258C12.5102 13.5819 12.3661 13.9292 12.3661 14.2913C12.3661 14.6535 12.5102 15.0008 12.7668 15.2569C13.0235 15.513 13.3715 15.6568 13.7344 15.6568Z" fill="white"/>
</svg>
